<svg width="190" height="85" fill="none" xmlns="http://www.w3.org/2000/svg"><path d="M112.759 42.492c0 .693-.022 1.386 0 2.08.236 7.045-1.964 13.394-5.496 19.38-1.185 2.007-2.317 4.049-3.337 6.146-.842 1.724-2.011 2.932-3.83 3.639-1.016.393-1.958 1.075-2.81 1.777-3.92 3.236-8.367 5.553-13.123 7.186-3.16 1.083-6.413 2.037-9.845 1.994-1.023-.012-2.049.303-3.074.306-1.025.003-2.05-.33-3.065-.286-4.426.19-8.526-1.172-12.597-2.6-4.443-1.558-8.366-4.02-12.057-6.953-5.207-4.137-8.918-9.349-11.647-15.315-1.47-3.215-2.667-6.534-3.005-10.103-.057-.592-.253-1.178-.427-1.753-1.238-4.003-.526-7.928.24-11.916.586-3.05 1.189-6.064 2.33-8.96 3.015-7.66 7.803-13.933 14.435-18.86C50.981 4.151 57.17 1.63 63.897.545c7.72-1.243 15.258-.348 22.57 2.558 3.65 1.454 7.093 3.296 10.1 5.735 2.804 2.275 5.334 4.937 7.724 7.657 2.166 2.466 3.704 5.402 5.077 8.398 2.144 4.681 3.542 9.526 3.4 14.731-.031.962-.008 1.916-.009 2.868Zm-2.964-9.483c-.214-1.635-.347-3.53-.747-5.37-1.14-5.292-4.205-9.423-8.291-12.796-2.32-1.918-4.848-3.585-7.34-5.28-.844-.574-1.825-1.102-2.81-1.279-2.535-.466-5.098-.902-7.666-1.033-4.458-.227-8.462-1.377-11.827-4.475-2.478-2.28-5.175-2.5-7.75-.494-2.918 2.272-6.24 3.606-9.624 4.926-2.481.968-4.87 2.187-7.256 3.39-1.993 1.008-3.154 2.58-3.126 4.96.016 1.336-.596 2.451-1.833 3.19a28.225 28.225 0 0 0-2.967 2.054c-2.639 2.076-4.695 4.413-5.139 8.041-.35 2.87-1.22 5.706-3.187 8.07a5.41 5.41 0 0 0-1.174 2.838c-.181 2.145-.106 4.315-.053 6.473.015.577.266 1.197.561 1.705.68 1.2 1.42 2.366 2.217 3.492 1.932 2.684 3.611 5.435 4 8.844.375 3.303 1.971 5.995 4.672 8.05 3.911 2.976 7.682 6.136 11.652 9.036 2.134 1.562 4.418 2.928 7.233 3.244 2.815.317 5.574 1.083 8.097 2.5a4.57 4.57 0 0 0 1.707.523c3.56.384 6.857-.498 9.983-2.163.98-.522 1.99-.996 3.004-1.45 2.444-1.093 5.153-1.811 7.281-3.334 2.368-1.698 4.9-2.45 7.617-2.925 1.174-.206 2.134-.69 2.898-1.562.913-1.036 1.757-2.131 2.707-3.132.983-1.032 1.692-2.13 1.864-3.602.264-2.256 1.229-4.247 2.454-6.16 2.074-3.234 3.253-6.806 3.867-10.605.161-.996.253-1.839-.241-2.716-1.428-2.53-.845-5.404-1.297-8.098-.228-1.456.298-3.05.519-4.865l-.005.003ZM92.611 7.73c-.603-.667-.794-.968-1.067-1.155-.493-.34-1.03-.619-1.554-.914-4.482-2.523-9.39-3.75-14.404-4.63C74.578.85 73.519.93 72.49.97c-.267.01-.587.27-.756.505-.078.106.097.48.245.657a9.614 9.614 0 0 0 4.21 2.9 28.187 28.187 0 0 0 8.816 1.655c1.274.035 2.544.276 3.813.449 1.082.153 2.163.337 3.792.592ZM54.54 80.442c-3.008-2.457-5.645-4.653-8.328-6.79-2.221-1.77-4.49-3.479-6.761-5.184-.255-.192-.658-.187-1.216-.33 2.736 4.59 11.871 11.563 16.305 12.304ZM34.274 23.107c1.814-1.386 3.492-2.843 5.335-4.05 2.583-1.682 3.57-3.773 2.96-7.364-1.833 1.498-3.14 3.303-4.553 4.943-1.494 1.73-2.602 3.789-3.847 5.725-.096.156.06.465.105.746Zm61.174 52.385c-1.692-.116-3.396.183-4.458 1.096-2.014 1.731-4.41 2.602-6.848 3.468-1.28.454-2.487 1.12-3.693 1.757-.167.087-.198.555-.163.831.011.093.463.245.648.182 2.19-.745 4.452-1.346 6.525-2.344 2.542-1.219 4.93-2.763 7.362-4.195.255-.143.39-.48.627-.795Zm-64.646-24.01c-.487 1.433-.39 2.227-.084 3.072.848 2.344 1.363 4.818 2.892 6.866.567.76.683 2.458 1.729 2.092.92-.32-.157-1.665-.22-2.571-.241-3.464-2.064-6.256-4.317-9.459ZM47.215 8.345l.227.342c1.265-.469 2.54-.912 3.792-1.414a585.95 585.95 0 0 0 8.135-3.332c.545-.23 1.044-.599 1.51-.972.13-.106.106-.464.066-.686-.022-.099-.279-.206-.427-.213a2.67 2.67 0 0 0-.747.124c-3.675 1.043-7.14 2.587-10.456 4.461-.776.44-1.405 1.121-2.1 1.69Zm64.535 37.202c.222-.258.396-.365.408-.487.358-3.774-.042-7.514-.559-11.244-.026-.188-.286-.456-.463-.478-.195-.026-.5.136-.618.31a1.99 1.99 0 0 0-.352.935 35.816 35.816 0 0 0 .604 9.19c.117.61.623 1.148.98 1.774ZM29.914 35.133c1.434-.547 1.649-1.537 1.802-2.43.375-2.178 1.312-4.275 1.002-6.579-1.499 2.75-2.828 5.534-2.803 9.009ZM64.62 82.966c-3.214-1.421-4.086-1.57-6.948-1.172 1.213.46 2.305 1.189 3.403 1.2 1.145.018 2.384 1.419 3.546-.028Z" fill="#2E2520"/><path d="M71.25 54.701c-2.198-.04-3.708-.959-4.826-2.735-1.042-1.657-2.775-2.517-4.361-3.538-2-1.286-3.628-2.737-4.09-5.344-.32-1.768.052-3.303.77-4.7.603-1.166 1.679-2.25 2.809-2.943 1.225-.752 2.24-1.462 2.806-2.851.64-1.599 2.253-1.696 3.682-1.983 1.345-.27 2.713-.445 4.04-.783 1.813-.463 3.46-.32 4.785 1.092 1.024 1.095 2.22 1.88 3.554 2.545 1.387.69 1.845 1.497 1.41 2.94-.295.98-.01 1.646.356 2.428.399.853.81 1.719 1.084 2.62.913 2.995-.138 5.518-2.95 6.852-1.744.826-3.079 1.928-3.513 3.866-.174.781-.661 1.225-1.35 1.427-1.392.407-2.803.743-4.207 1.107Zm9.227-12.561c.044-5.279-3.959-9.5-9.165-9.506-4.67 0-9.37 3.16-9.552 9.214-.146 4.846 3.892 9.36 9.157 9.376 6.41.032 9.435-4.417 9.56-9.084Zm-18.768 5.046c0-.676.065-1.023-.01-1.335-.69-2.867-1.14-5.707.427-8.469.113-.198-.148-.607-.235-.918-.307.099-.678.12-.911.31-2.587 2.122-3.742 7.219.729 10.412Zm9.609-15.876c1.083.396 1.7.678 2.347.852 2.385.631 4.42 1.765 5.835 3.855.28.412.64 1.023 1.174.554.284-.25.377-1.015.213-1.398-.22-.508-.722-1.142-1.204-1.242-1.31-.274-2.028-1.222-2.881-2.049-1.436-1.378-3.04-1.81-5.484-.572Zm-.147 20.777-.033-.199c-.687 0-1.38-.058-2.057.025-.347.042-.663.337-.993.519.3.265.561.683.907.769 1.848.465 3.71.566 5.533-.147.312-.123.658-.282.854-.533.173-.213.23-.591.194-.878-.014-.107-.445-.267-.658-.233-1.252.196-2.498.443-3.742.674l-.005.003Zm9.45-5.414c1.281-.237 1.853-.958 1.928-2.068.055-.934.041-1.872-.041-2.805-.02-.246-.364-.466-.56-.698-.284.27-.862.632-.81.794.52 1.618-.567 3.067-.516 4.774v.003ZM92.334 53.982c-.074.037-.37.285-.692.32-.292.034-.719-.064-.9-.269a45.97 45.97 0 0 1-2.608-3.184c-.213-.288-.3-1.065-.18-1.132.401-.22 1.183-.451 1.357-.26 1.03 1.134 1.935 2.382 2.866 3.605.09.123.063.333.157.92ZM48.745 62.87c.476.038 1.416.066 2.332.223.229.04.534.486.534.752 0 .267-.264.727-.492.784-1.782.442-3.555.55-5.132-.64a.798.798 0 0 1-.25-.655c.033-.178.31-.426.495-.44.684-.057 1.37-.025 2.513-.025ZM104.581 25.4l.675.368c-.191.342-.309.892-.587.991-1.283.471-2.6.847-3.938 1.123-.385.076-.944-.302-1.3-.615-.41-.36-.165-1.145.351-1.224 1.518-.233 3.047-.412 4.799-.643ZM59.226 70.498c.712.333 1.309.427 1.6.781.798.99 1.527 2.03 2.184 3.118.32.518.028 1.078-.51 1.227-.296.083-.832-.158-1.05-.426a33.896 33.896 0 0 1-2.413-3.287c-.17-.272.094-.817.189-1.413ZM87.19 29.266c.046-.302 0-.649.143-.782.192-.175.604-.32.801-.225.27.13.445.483.63.761a83.76 83.76 0 0 1 1.52 2.344c.22.355.515.733.534 1.116.02.354-.195.813-.461 1.056-.149.136-.76.048-.91-.14-.986-1.253-2.169-2.425-2.256-4.13ZM90.258 15.964c-.213 1.28-.298 2.22-.547 3.121a2.582 2.582 0 0 1-.853 1.235c-.283.228-.776.195-1.174.278-.032-.371-.148-.76-.081-1.112.208-1.089.486-2.165.736-3.246.02-.084.014-.173.038-.255.197-.652.621-1.149 1.301-.88.343.137.503.735.58.86ZM71.862 24.28c.6.074 1.375.115 2.116.294.253.06.626.515.582.711-.077.351-.369.813-.677.917a2.564 2.564 0 0 1-1.503.007c-.853-.271-1.648-.362-2.5-.006-.559.234-1.084-.012-1.233-.568-.2-.746.362-1.107.992-1.213.673-.111 1.367-.093 2.223-.142ZM85.17 61.014c-.242 1.058-.427 1.986-.688 2.893-.051.178-.427.418-.585.377-.284-.069-.683-.293-.74-.525a3.493 3.493 0 0 1-.043-1.533c.2-.93.398-1.812.021-2.761-.179-.455-.128-1.18.564-1.178.372 0 .908.46 1.075.84.272.609.29 1.325.396 1.887ZM74.671 60.742c-.139.249-.206.542-.388.668-1.124.773-2.25 1.55-3.432 2.227-.302.172-.832.066-1.217-.048-.564-.168-.682-.91-.213-1.21 1.293-.828 2.593-1.65 3.926-2.412.214-.123.64.01.916.146.186.094.266.396.408.63ZM60.357 11.037c.182.107.526.2.572.37.446 1.641.876 3.288 1.23 4.95.098.462-.513.719-.923.443-1.29-.868-2.093-4.08-1.341-5.424.078-.133.268-.2.462-.338ZM76.297 15.701c-.388-.259-.807-.39-.864-.615-.06-.242.14-.657.357-.852a36.538 36.538 0 0 1 2.967-2.382c.346-.244 1.066-.417 1.333-.226.63.442.299 1.065-.14 1.521-.588.615-1.173 1.263-1.852 1.76-.52.373-1.188.534-1.8.794ZM51.769 24.377l-.943.89c-.27-.29-.668-.532-.781-.88-.453-1.36-.832-2.743-1.191-4.13-.05-.191.107-.581.267-.647.261-.107.691-.15.89 0 .391.288.838.675.966 1.109.336 1.13.513 2.31.792 3.658ZM41.443 47.167c-.866 1.584-1.523 3.207-3.134 4.071-.271.145-.87-.04-1.16-.271-.494-.392 0-.716.24-1.05.756-1.04 1.455-2.125 2.258-3.125.207-.257.733-.384 1.09-.349.244.023.442.436.706.724ZM51.217 47.301c.452.261.779.339.84.51.1.282.152.724 0 .919-.248.311-.671.49-1.036.699-.947.542-1.88 1.114-2.864 1.577-.3.14-.843.098-1.11-.092-.549-.39-.356-1.017.086-1.293 1.35-.845 2.77-1.585 4.084-2.32ZM100.135 40.126c-.348.783-.836 1.965-1.416 3.1-.09.176-.65.272-.888.167-.221-.1-.462-.544-.418-.784.233-1.263.49-2.53.882-3.749.12-.372.66-.71 1.074-.834.154-.046.556.533.747.886.109.2.019.507.019 1.214ZM41.172 30.711c1.53 1.373 1.348 3.236 1.518 4.957.032.32-.366.777-.684 1.008-.166.121-.843-.074-.859-.186a98.87 98.87 0 0 1-.575-5.234c-.012-.15.348-.332.6-.545ZM76.95 73.207c.257.068.51.15.757.247.92.426 1.845.84 2.742 1.31.427.221.853.498 1.16.852.354.41-.05 1.198-.543 1.09-1.67-.36-3.3-.863-4.548-2.11-.184-.184-.18-.645-.12-.951.035-.173.357-.292.552-.438ZM56.643 31.213c.088.276.391.704.285.973-.56 1.422-1.21 2.812-1.87 4.191-.08.17-.427.32-.631.292-.18-.022-.427-.273-.474-.464-.35-1.538.753-4.29 1.983-4.982.127-.072.33-.01.707-.01ZM104.358 54.557c-.192-.121-.592-.27-.8-.556-.083-.114.186-.634.417-.8a38.022 38.022 0 0 1 3.167-2.096c.295-.171.907-.184 1.124.009.199.178.229.852.049 1.1-.916 1.273-2.07 2.245-3.957 2.343ZM98.019 65.53c-.792-.082-1.137-.09-1.467-.164-.14-.031-.347-.196-.35-.304a1.138 1.138 0 0 1 .18-.687 1.32 1.32 0 0 1 .641-.4c1.22-.366 2.442-.734 3.681-1.031.269-.064.835.113.871.266.081.365-.016.805-.159 1.172-.076.194-.378.356-.61.426-1.06.291-2.125.551-2.787.722ZM61.265 56.723c-.088.372-.23 1.196-.504 1.973-.068.193-.602.378-.847.308s-.534-.474-.526-.727a51.45 51.45 0 0 1 .243-4.308c.031-.312.427-.587.655-.879.273.289.716.543.786.875.154.741.121 1.521.193 2.758ZM118.465 11.747c0-3.045.738-5.354 2.212-6.926 1.491-1.59 3.401-2.385 5.73-2.385 2.328 0 4.18.686 5.553 2.058 1.391 1.372 2.086 3.564 2.086 6.575 0 3.012-.737 5.287-2.211 6.826-1.475 1.54-3.443 2.31-5.906 2.31-2.128 0-3.87-.611-5.227-1.833-.704-.635-1.256-1.514-1.659-2.635-.385-1.137-.578-2.467-.578-3.99Zm7.866-9.06c-1.692 0-3.082.753-4.171 2.259-1.073 1.506-1.609 3.714-1.609 6.625 0 2.912.511 5.036 1.533 6.375 1.022 1.338 2.379 2.007 4.071 2.007 1.709 0 3.1-.752 4.172-2.258 1.089-1.523 1.633-3.723 1.633-6.6 0-2.895-.519-5.02-1.558-6.375-1.022-1.355-2.379-2.033-4.071-2.033ZM138.393 20.104h-2.086V2.537h2.086v8.08h8.167v-8.08h2.086v17.567h-2.086v-9.235h-8.167v9.235ZM159.368 20.104h-.327l2.186-17.567h.83l5.277 16.237 5.252-16.237h.829l2.187 17.567h-2.086L171.782 6.05l-4.549 14.054h-1.583l-4.599-13.878-1.683 13.878ZM189.523 2.537c.318.318.477.728.477 1.23 0 .418-.092.844-.276 1.28l-4.499 9.11v5.947h-2.086v-5.396l-5.026-12.171h2.136l4.8 11.318 4.373-8.809c.184-.418.276-.853.276-1.305 0-.451-.125-.803-.377-1.054l.202-.15ZM3.543 24.72a83.964 83.964 0 0 1 3.808-.089c1.27 0 2.598.133 3.986.398 1.417.266 2.805.767 4.162 1.504 1.388.707 2.554 1.636 3.499 2.786.974 1.12 1.757 2.61 2.347 4.467.59 1.857.886 4.112.886 6.766 0 2.653-.443 5.041-1.329 7.164-.856 2.093-2.037 3.7-3.543 4.82-2.922 2.182-6.45 3.273-10.583 3.273-1.447 0-2.968-.059-4.562-.177H0V24.72h3.543Zm.133 30.559c.62.058 1.402.088 2.347.088.944 0 1.653-.015 2.125-.044.473-.03 1.122-.148 1.949-.354a11.39 11.39 0 0 0 2.303-.929c.708-.383 1.446-.943 2.214-1.68a10.994 10.994 0 0 0 2.037-2.698c1.27-2.417 1.904-5.572 1.904-9.464 0-2.771-.34-5.16-1.018-7.164-.68-2.034-1.462-3.538-2.347-4.511a9.14 9.14 0 0 0-3.145-2.3c-1.24-.59-2.229-.928-2.967-1.017a21.868 21.868 0 0 0-2.568-.132c-.974 0-1.92.044-2.834.132V55.28ZM119.184 55.632h-.575V24.676h1.505l18.423 28.613V24.674h.575v30.957h-3.232l-16.696-25.65v25.65ZM166.381 24.675h.576v17.69c0 4.629-.915 8.034-2.746 10.216-1.83 2.152-4.221 3.228-7.174 3.228-1.86 0-3.439-.162-4.738-.486-1.299-.354-2.524-.988-3.676-1.902-2.361-1.828-3.542-5.513-3.542-11.056v-17.69h3.675v17.646c0 5.366.812 8.948 2.436 10.746.827.885 1.683 1.49 2.568 1.814.916.324 2.008.486 3.277.486 2.835 0 5.093-1.032 6.776-3.096 1.712-2.093 2.568-5.41 2.568-9.95V24.676ZM182.064 55.632h-3.675V25.118h-7.661v-.442h19.042v.442h-7.706v30.514Z" fill="#2E2520"/></svg>