<svg aria-hidden="true" style="width:0;height:0;position:absolute;overflow:hidden" xmlns="http://www.w3.org/2000/svg"><defs><symbol id="icon-chat" viewBox="0 0 47 32"><path d="M35.988 14.129C35.988 5.587 26.979 0 17.97 0S.001 5.637.001 14.129c0 3.225 1.403 6.4 3.963 8.862.098.123.148.246.098.394-.805 2.548-1.997 4.759-3.528 6.689l.033-.043c-.246.32-.271.738-.098 1.083s.517.566.911.566h.025c3.84-.098 8.271-1.182 11.003-3.889a.495.495 0 0 1 .369-.098c1.698.418 3.446.615 5.218.615 9.009 0 17.969-5.637 17.969-14.154zM13.095 26.338a1.741 1.741 0 0 0-1.649.467c-2.732 2.708-7.212 3.298-9.354 3.446a21.153 21.153 0 0 0 3.282-6.347l.042-.151a1.746 1.746 0 0 0-.467-1.723 10.91 10.91 0 0 1-3.545-7.867v-.01C1.379 7.064 8.838 1.328 17.97 1.328s16.615 5.735 16.615 12.8c0 7.015-7.458 12.751-16.615 12.751-1.674 0-3.323-.197-4.898-.566z"/><path d="M40.369 25.526c4.012-2.018 6.4-5.465 6.4-9.206 0-5.292-4.775-9.822-11.372-10.757h-.015a.689.689 0 0 0-.187 1.353l.005.001c5.908.837 10.191 4.8 10.191 9.403 0 3.2-2.092 6.203-5.612 7.975a1.703 1.703 0 0 0-.909 1.882l-.002-.011c.345 1.575 1.058 3.028 1.625 4.012-4.037-.689-5.588-2.634-6.055-3.446a1.702 1.702 0 0 0-1.477-.862h-.049c-.738 0-1.526-.049-2.265-.148h-.015a.689.689 0 0 0-.187 1.353l.005.001a16.56 16.56 0 0 0 2.462.172h.049c.123 0 .246.049.271.148 1.871 3.2 6.154 4.037 7.877 4.234a.985.985 0 0 0 .982-.439l.002-.004a.976.976 0 0 0 .15-.523.973.973 0 0 0-.177-.563l.002.003c-.542-.812-1.477-2.462-1.846-4.234a.321.321 0 0 1 .171-.344l.002-.001zM7.335 11.692a2.388 2.388 0 1 0 .01 4.751l-.01.001a2.388 2.388 0 0 0 .011-4.749l-.01-.001zm0 3.373a1.01 1.01 0 0 1 0-2.018 1.01 1.01 0 0 1 0 2.018zm6.77-3.373a2.388 2.388 0 1 0 .01 4.751l-.01.001a2.388 2.388 0 0 0 .011-4.749l-.01-.001zm0 3.373a1.01 1.01 0 0 1 0-2.018 1.01 1.01 0 0 1 0 2.018zm6.769-3.373a2.388 2.388 0 1 0 .01 4.751l-.01.001a2.388 2.388 0 0 0 .011-4.749l-.01-.001zm0 3.373a1.01 1.01 0 0 1 0-2.018 1.01 1.01 0 0 1 0 2.018zm6.769-3.373a2.388 2.388 0 1 0 .01 4.751l-.01.001a2.388 2.388 0 0 0 .011-4.749l-.01-.001zm0 3.373a1.01 1.01 0 0 1 0-2.018 1.01 1.01 0 0 1 0 2.018z"/></symbol><symbol id="icon-clock" viewBox="0 0 32 32"><path d="M16 0C7.476.403.717 7.412.717 16s6.758 15.597 15.246 15.999l.036.001c8.524-.403 15.283-7.412 15.283-16S24.524.403 16.036.001L16 0zm0 30.939C8.051 30.55 1.754 24.01 1.754 16S8.051 1.45 15.965 1.062L16 1.061C23.949 1.45 30.246 7.99 30.246 16s-6.297 14.55-14.212 14.938l-.035.001z"/><path d="M16.539 13.878V8.472a.539.539 0 1 0-1.078 0v5.406c-.741.202-1.331.775-1.516 1.516h-3.806a.539.539 0 1 0 0 1.078h3.806a2.143 2.143 0 0 0 2.075 1.62 2.14 2.14 0 0 0 .533-4.211l-.015-.003zM16 17.011a1.069 1.069 0 1 1 0-2.138 1.069 1.069 0 1 1 0 2.138zm0-11.739a.543.543 0 0 0 .539-.539v-.522a.539.539 0 1 0-1.078 0v.522c0 .303.253.539.539.539zm0 21.339a.54.54 0 0 0-.539.521v.54a.539.539 0 1 0 1.078 0v-.539a.54.54 0 0 0-.539-.522zm11.739-11.2H27.2a.539.539 0 1 0 .003 1.061H27.2h.539a.539.539 0 1 0-.003-1.061l.003-.001zm-22.939 0h-.539a.539.539 0 1 0 .003 1.061h-.003.539a.539.539 0 1 0-.003-1.061l.003-.001zm19.116-8.152-.371.387a.539.539 0 1 0 .757.744l.001-.002.371-.371a.539.539 0 1 0-.758-.759l-.001.001zM7.697 23.478l-.371.371a.539.539 0 1 0 .758.759l.001-.001.371-.371a.539.539 0 1 0-.758-.759l-.001.001zm16.606 0a.539.539 0 1 0-.759.758l.001.001.371.371a.539.539 0 1 0 .759-.758l-.001-.001-.371-.371zM8.084 7.259a.539.539 0 1 0-.759.758l.001.001.371.371a.538.538 0 0 0 .758 0 .539.539 0 0 0 0-.742l-.371-.404z"/></symbol><symbol id="icon-close-menu-btn" viewBox="0 0 32 32"><path d="M30.347 32a1.653 1.653 0 0 0 1.156-2.809L2.827.48A1.654 1.654 0 1 0 .512 2.805l.004.003 28.693 28.711c.32.32.747.48 1.156.48z"/><path d="M1.653 32c.409 0 .836-.16 1.156-.48L31.52 2.809A1.653 1.653 0 0 0 29.188.501l.003-.003L.48 29.174A1.653 1.653 0 0 0 1.644 32h.009z"/></symbol><symbol id="icon-instagram" viewBox="0 0 32 32"><path d="M16.32 32H16c-2.52 0-4.82-.06-7.08-.2a9.427 9.427 0 0 1-5.478-2.074l.018.014a8.773 8.773 0 0 1-2.928-4.7l-.012-.06C.08 23.28.06 21.6.04 20a345.146 345.146 0 0 1 .002-8.151l-.002.211c0-1.64.04-3.32.48-5.02.5-1.98 1.5-3.58 2.94-4.76C4.96 1.04 6.86.32 8.92.2 11.18.06 13.48 0 16 0s4.82.06 7.08.2c2.06.12 3.96.84 5.46 2.06 1.44 1.2 2.44 2.78 2.94 4.76.44 1.7.46 3.4.48 5L32 16l-.04 3.96c0 1.64-.04 3.32-.48 5.02a8.793 8.793 0 0 1-2.926 4.749l-.014.011c-1.5 1.22-3.4 1.94-5.46 2.06-2.16.14-4.38.2-6.76.2zM16 29.5c2.46 0 4.74-.06 6.94-.2a6.324 6.324 0 0 0 6.112-4.897l.008-.043c.36-1.4.4-2.94.4-4.44a378.64 378.64 0 0 0-.002-8.05l.002.21a19.203 19.203 0 0 0-.423-4.586l.023.126a6.339 6.339 0 0 0-2.09-3.412l-.01-.008a6.835 6.835 0 0 0-4.006-1.5h-.014c-2.2-.14-4.48-.2-6.94-.2s-4.74.06-6.94.2a6.324 6.324 0 0 0-6.112 4.897l-.008.043c-.36 1.4-.4 2.94-.4 4.44a336.544 336.544 0 0 0 .002 8.049l-.002-.209c0 1.5.04 3.02.4 4.46s1.08 2.6 2.1 3.42c1.12.9 2.46 1.4 4.02 1.5 2.2.14 4.48.2 6.94.2zm-.06-5.68a7.83 7.83 0 0 1 0-15.66 7.83 7.83 0 0 1 0 15.66zm0-13.14a5.32 5.32 0 0 0 0 10.64 5.32 5.32 0 0 0 0-10.64zm8.68-5a1.88 1.88 0 0 0 0 3.76 1.88 1.88 0 0 0 0-3.76z"/></symbol><symbol id="icon-twitter" viewBox="0 0 32 32"><path d="M32 5.44c-1.2.6-2.46.98-3.78 1.16a7.224 7.224 0 0 0 2.868-4.009l.012-.051c-1.26.86-2.66 1.44-4.16 1.78A6.275 6.275 0 0 0 22.144 2h-.004c-3.58 0-6.54 3.3-6.54 7.34 0 .58.04 1.14.16 1.66A18.009 18.009 0 0 1 2.238 3.397L2.2 3.34a7.951 7.951 0 0 0-.9 3.7c0 2.54 1.18 4.8 2.92 6.1a5.943 5.943 0 0 1-2.985-.914l.025.014v.08c0 3.56 2.28 6.52 5.26 7.2a5.946 5.946 0 0 1-2.999.113l.039.007c.84 2.9 3.26 5.04 6.12 5.1a12.266 12.266 0 0 1-8.224 3.146c-.513 0-1.019-.031-1.516-.092L0 27.8a16.95 16.95 0 0 0 10.06 3.28c12.08 0 18.68-11.18 18.68-20.86l-.02-.96a14.133 14.133 0 0 0 3.244-3.755L32 5.44z"/></symbol><symbol id="icon-facebook" viewBox="0 0 32 32"><path d="M22.52 0H18.9c-4.06 0-6.7 3.1-6.7 7.88v3.62H8.56c-.3 0-.56.3-.56.66v5.26c0 .36.26.66.56.66h3.64v13.26c0 .36.26.66.58.66h4.74c.32 0 .56-.3.56-.66V18.08h4.26c.32 0 .56-.3.56-.66v-5.274c0-.17-.06-.326-.161-.447l.001.001a.538.538 0 0 0-.399-.2H18.08V8.42c0-1.48.32-2.22 2-2.22h2.44c.3 0 .56-.3.56-.66V.66c0-.36-.26-.66-.56-.66z"/></symbol><symbol id="icon-chef-hat" viewBox="0 0 32 32"><path d="M23.158 9.634h-.017a.455.455 0 0 1-.455-.455 6.686 6.686 0 0 0-13.372 0 .463.463 0 1 1-.926 0 7.613 7.613 0 0 1 15.226 0 .455.455 0 0 1-.455.455z"/><path d="M24.488 19.975a.455.455 0 0 1 0-.91 6.653 6.653 0 0 0 6.602-6.564v-.004a6.635 6.635 0 0 0-8.738-6.251l.047-.014a.455.455 0 0 1-.272-.858l.003-.001a7.532 7.532 0 0 1 2.248-.335c2.086 0 3.978.828 5.366 2.173l-.002-.002a7.542 7.542 0 0 1 2.257 5.283v.005a7.58 7.58 0 0 1-7.508 7.478h-.004zm-16.976 0A7.58 7.58 0 0 1 0 12.502v-.005a7.563 7.563 0 0 1 10.074-7.058l-.053-.016a.455.455 0 0 1-.424.791l.003.001a6.659 6.659 0 0 0-1.981-.295 6.764 6.764 0 0 0-4.724 1.914l.002-.002A6.615 6.615 0 0 0 .91 12.493v.004a6.653 6.653 0 0 0 6.617 6.568h.002a.455.455 0 0 1 0 .91z"/><path d="M24.488 31.343H7.511a.455.455 0 0 1-.455-.455V19.536a.455.455 0 0 1 .91 0V30.45h16.067V19.536a.455.455 0 0 1 .91 0v11.368a.455.455 0 0 1-.455.455z"/><path d="M27.672 26.914H10.695a.455.455 0 0 1 0-.91h16.977a.455.455 0 0 1 0 .91z"/></symbol><symbol id="icon-phone" viewBox="0 0 32 32"><path d="M29.44 20.48c-1.969 0-3.889-.295-5.711-.886-.886-.295-1.994-.025-2.535.492L17.6 22.769c-3.89-1.888-6.987-4.898-8.933-8.606l-.052-.108 2.708-3.471a2.456 2.456 0 0 0 .611-2.553l.005.017c-.577-1.654-.911-3.56-.911-5.544v-.02.001C11.003 1.131 9.871-.001 8.443-.001H2.56C1.157-.001 0 1.131 0 2.51c0 15.803 13.194 28.677 29.44 28.677 1.403 0 2.56-1.108 2.56-2.511v-5.711c0-1.378-1.157-2.486-2.56-2.486z"/></symbol><symbol id="icon-geo" viewBox="0 0 23 32"><path d="M11.733 0c6.464 0 11.733 5.12 11.733 11.435 0 2.496-.811 4.864-2.347 6.869l-8.661 11.349-.085.064a.885.885 0 0 1-1.365-.064c-2.475-3.2-7.061-9.28-8.832-11.584A11.073 11.073 0 0 1 0 11.456C.084 5.111 5.247-.001 11.604-.001L11.74 0h-.007zm0 17.6c3.477 0 6.336-2.773 6.336-6.165s-2.859-6.187-6.336-6.187h-.065a6.272 6.272 0 0 0-6.271 6.183v.005c0 3.413 2.859 6.187 6.336 6.187z"/></symbol><symbol id="icon-logo" viewBox="0 0 72 32"><path d="M42.451 16c0 .26-.008.52 0 .779.087 2.654-.742 5.045-2.071 7.296-.444.753-.87 1.525-1.254 2.315a2.599 2.599 0 0 1-1.424 1.364l-.018.006c-.384.147-.738.403-1.058.666a15.567 15.567 0 0 1-4.833 2.674l-.11.033c-1.19.407-2.413.768-3.704.753-.388-.008-.772.113-1.16.113-.384 0-.772-.124-1.152-.109-1.668.075-3.211-.44-4.744-.979-1.672-.584-3.147-1.513-4.536-2.616-1.961-1.559-3.358-3.52-4.386-5.764-.553-1.212-1.005-2.462-1.129-3.802-.023-.226-.098-.448-.162-.663-.467-1.506-.2-2.985.09-4.488.211-1.281.516-2.416.919-3.503l-.042.13c1.141-2.902 3.012-5.309 5.389-7.07l.043-.031A15.537 15.537 0 0 1 23.966.217l.089-.012C24.818.075 25.697 0 26.593 0c2.148 0 4.196.428 6.064 1.203l-.105-.039c1.374.55 2.669 1.242 3.802 2.161a24.617 24.617 0 0 1 2.878 2.85l.028.033c.817.926 1.393 2.033 1.912 3.162.806 1.758 1.333 3.584 1.28 5.542-.011.365-.004.723-.004 1.08zm-1.118-3.576c-.075-.614-.128-1.325-.279-2.018-.429-1.995-1.581-3.546-3.125-4.819-.87-.723-1.822-1.348-2.76-1.988a2.853 2.853 0 0 0-1.038-.478l-.019-.004a21.003 21.003 0 0 0-2.817-.384l-.071-.004c-1.679-.087-3.185-.52-4.454-1.683-.93-.858-1.946-.941-2.918-.188-1.096.855-2.349 1.355-3.622 1.856-.934.365-1.833.821-2.733 1.276-.749.376-1.186.971-1.175 1.867v.036c0 .5-.277.936-.686 1.161l-.007.003c-.388.233-.76.489-1.114.772-.994.783-1.769 1.664-1.935 3.027-.132 1.08-.459 2.146-1.201 3.038a2.023 2.023 0 0 0-.44 1.06l-.001.009c-.068.809-.038 1.626-.019 2.436.004.218.098.452.211.64.293.52.569.95.864 1.365l-.032-.047c.727 1.013 1.359 2.048 1.506 3.332.143 1.242.742 2.255 1.758 3.027 1.476 1.122 2.895 2.312 4.39 3.403.802.587 1.664 1.103 2.722 1.224 1.058.117 2.097.407 3.049.941.2.105.414.173.64.196 1.34.143 2.583-.188 3.761-.817.369-.196.749-.376 1.129-.546.919-.41 1.939-.678 2.741-1.254.892-.64 1.845-.922 2.869-1.099a1.795 1.795 0 0 0 1.09-.589l.002-.002c.343-.388.659-.802 1.016-1.178.371-.349.625-.817.703-1.343l.002-.012a5.486 5.486 0 0 1 .934-2.337l-.012.017a10.167 10.167 0 0 0 1.45-3.934l.007-.056c.06-.376.094-.693-.09-1.024-.538-.952-.32-2.033-.489-3.049-.087-.55.113-1.148.196-1.83zm-6.464-9.51c-.226-.252-.301-.365-.403-.437-.184-.128-.388-.23-.584-.343-1.687-.949-3.535-1.412-5.421-1.743-.38-.068-.779-.038-1.167-.023-.102.004-.222.102-.286.188-.026.041.038.181.094.248.414.491.949.867 1.56 1.084l.025.008c.984.366 2.121.593 3.306.625h.014c.478.011.956.102 1.431.169.414.056.817.124 1.431.222zM20.533 30.283c-1.129-.922-2.127-1.751-3.136-2.556-.836-.666-1.69-1.31-2.545-1.95-.098-.075-.248-.072-.459-.124 1.032 1.728 4.472 4.352 6.136 4.631zM12.902 8.7c.685-.523 1.318-1.073 2.01-1.525.971-.632 1.344-1.423 1.114-2.775-.689.565-1.182 1.242-1.713 1.864-.565.651-.979 1.423-1.449 2.153-.038.06.023.177.038.282zm23.032 19.72c-.64-.041-1.28.068-1.679.414-.757.651-1.66.979-2.579 1.306-.482.169-.937.422-1.393.659-.06.034-.072.211-.056.312 0 .038.173.094.241.072.828-.282 1.679-.508 2.458-.885.956-.459 1.856-1.039 2.771-1.581.098-.053.147-.177.237-.297zm-24.339-9.036c-.181.538-.147.836-.03 1.152.32.885.512 1.815 1.088 2.586.215.286.256.926.651.791.346-.124-.06-.629-.083-.971-.09-1.303-.776-2.353-1.626-3.561zm6.182-16.248.083.132c.478-.177.956-.346 1.431-.535 1.02-.41 2.044-.828 3.061-1.254.216-.102.401-.224.568-.368l-.003.003c.053-.038.045-.177.026-.26-.008-.038-.102-.075-.158-.079-.098 0-.188.019-.282.045a17.921 17.921 0 0 0-4.023 1.729l.085-.046c-.29.162-.527.422-.791.632zm24.294 14.005c.083-.094.151-.136.151-.181.139-1.419-.011-2.827-.207-4.232-.011-.075-.109-.173-.173-.181-.075-.011-.188.049-.233.113a.737.737 0 0 0-.132.354c-.075 1.16 0 2.323.226 3.464.045.226.233.429.369.666zM11.26 13.225c.542-.207.621-.58.678-.919.143-.821.497-1.608.376-2.477-.565 1.035-1.062 2.086-1.054 3.392zm13.068 18.007c-1.208-.538-1.54-.591-2.616-.444.459.173.866.452 1.28.452.433.008.9.535 1.336-.008z"/><path d="m26.824 20.593-.051.001c-.753 0-1.411-.41-1.762-1.019l-.005-.01c-.392-.625-1.043-.949-1.641-1.333-.753-.486-1.363-1.032-1.54-2.014-.12-.663.023-1.242.29-1.769a3.007 3.007 0 0 1 1.045-1.099l.013-.007c.463-.282.843-.55 1.054-1.073.245-.602.851-.64 1.389-.745.508-.102 1.02-.169 1.521-.297.681-.173 1.303-.12 1.8.414.377.388.82.709 1.313.944l.028.012c.523.264.693.565.527 1.107-.109.369 0 .621.136.915.151.32.305.648.41.986.343 1.129-.053 2.078-1.111 2.579-.655.312-1.16.727-1.321 1.457a.686.686 0 0 1-.504.534l-.005.001c-.527.154-1.054.282-1.585.418zm3.474-4.729c.015-1.988-1.491-3.576-3.452-3.576-1.758 0-3.528 1.186-3.595 3.464v.045a3.487 3.487 0 0 0 3.447 3.486h.002c2.409.015 3.55-1.66 3.599-3.418zm-7.07 1.902c0-.256.023-.388-.004-.504-.264-1.08-.429-2.146.162-3.189.038-.075-.056-.226-.09-.346-.113.038-.256.045-.343.117a2.436 2.436 0 0 0-.862 1.861c0 .864.449 1.623 1.127 2.056l.01.006zm3.614-5.979c.414.151.64.256.888.32.896.237 1.66.666 2.195 1.453.105.151.241.384.44.207.109-.094.143-.38.083-.527-.083-.188-.271-.429-.452-.467-.497-.102-.764-.459-1.088-.772-.538-.52-1.144-.678-2.063-.215zm-.052 7.823-.011-.075c-.26 0-.52-.023-.776.008-.132.019-.248.128-.376.196.113.102.215.256.343.29.696.177 1.4.215 2.086-.056.117-.045.248-.105.32-.2.064-.079.087-.222.075-.331-.008-.038-.169-.098-.248-.087-.471.075-.941.166-1.408.252h-.004zm3.557-2.04c.482-.087.696-.361.727-.776a7.617 7.617 0 0 0-.015-1.058c-.008-.094-.139-.177-.211-.264-.109.102-.324.237-.305.301.196.606-.215 1.152-.196 1.796zm4.413 2.752c-.026.015-.139.109-.26.12-.109.015-.271-.023-.339-.102a17.166 17.166 0 0 1-.947-1.153l-.032-.044c-.083-.109-.113-.403-.072-.425.151-.083.448-.169.512-.098.388.425.73.896 1.08 1.355.034.045.023.124.056.346zm-16.411 3.347c.181.015.535.026.881.083.087.015.2.184.2.286 0 .098-.098.271-.188.294-.666.166-1.336.207-1.928-.241a.299.299 0 0 1-.095-.22l.001-.03v.001c.011-.064.113-.158.188-.166.256-.019.512-.008.941-.008zM39.371 9.562l.256.139c-.075.128-.117.335-.226.373-.478.177-.979.32-1.48.422-.143.03-.354-.113-.489-.23-.151-.136-.06-.433.132-.463.572-.087 1.148-.151 1.807-.241zM22.298 26.541c.264.124.489.158.602.294.301.373.572.764.821 1.175.12.192.011.407-.192.459-.113.034-.312-.056-.395-.158a12.558 12.558 0 0 1-.877-1.189l-.03-.049c-.064-.102.038-.309.072-.531zm10.53-15.522c.015-.113 0-.245.049-.297.075-.064.226-.12.301-.083.102.049.169.181.237.286.196.29.388.584.572.881.083.136.196.279.203.422a.582.582 0 0 1-.173.399c-.056.049-.286.015-.343-.053-.373-.474-.817-.915-.851-1.555zm1.152-5.011c-.079.482-.113.836-.207 1.178a.957.957 0 0 1-.32.463c-.109.087-.294.075-.444.105-.011-.139-.053-.286-.03-.418.079-.414.184-.817.279-1.224.008-.03.004-.064.015-.098.075-.245.233-.429.489-.328.128.049.188.275.218.32zm-6.927 3.133c.226.026.52.041.798.113.094.019.233.192.218.264-.03.136-.139.309-.256.346a.939.939 0 0 1-.565 0 1.289 1.289 0 0 0-.95.003l.009-.003c-.211.09-.407 0-.463-.211-.075-.282.136-.418.373-.459.252-.038.516-.038.836-.053zm5.011 13.827c-.09.399-.162.749-.26 1.092-.019.068-.158.154-.218.139-.109-.023-.26-.109-.279-.196a1.274 1.274 0 0 1-.017-.584l-.001.008c.075-.35.151-.685.011-1.039-.068-.173-.049-.448.211-.444.139 0 .339.173.403.316.105.226.113.497.151.708zm-3.953-.101c-.053.094-.075.203-.147.252-.422.29-.847.584-1.291.84-.113.064-.312.023-.459-.019-.211-.064-.256-.343-.075-.456.482-.312.971-.621 1.476-.907.079-.049.241 0 .343.053.072.038.102.151.154.237zM22.724 4.156c.068.038.196.075.215.139.166.617.328 1.239.463 1.864.038.173-.192.271-.346.166-.489-.328-.791-1.536-.508-2.04.03-.053.102-.075.177-.128zm6.001 1.755c-.151-.098-.305-.147-.328-.23-.023-.094.053-.248.136-.324.358-.316.73-.617 1.118-.896.128-.09.399-.154.501-.083.237.166.113.399-.053.572-.222.23-.44.474-.696.663-.196.139-.448.2-.678.301zM19.49 9.178l-.354.335c-.102-.113-.252-.203-.297-.331a17.977 17.977 0 0 1-.411-1.388l-.037-.166c-.019-.075.041-.218.102-.245.098-.038.264-.056.335 0 .151.109.316.256.365.414.124.429.192.873.297 1.382zm-3.889 8.58c-.324.595-.572 1.205-1.178 1.532-.102.053-.328-.015-.437-.102-.188-.151 0-.271.09-.395.282-.392.546-.802.851-1.178.075-.098.275-.143.41-.132.09.011.166.166.264.275zm3.682.049c.169.098.294.128.316.192.038.105.056.271 0 .346-.094.117-.252.184-.392.264-.358.203-.708.418-1.077.595-.113.053-.32.038-.418-.038-.207-.147-.136-.38.03-.486.508-.316 1.043-.595 1.54-.873zM37.7 15.108c-.132.294-.316.738-.535 1.167-.034.064-.245.102-.335.06-.083-.038-.173-.203-.158-.294.09-.474.188-.952.331-1.412.045-.139.248-.264.407-.312.056-.019.211.2.282.331.038.075.008.188.008.459zm-22.201-3.547c.576.516.508 1.22.572 1.867.011.12-.139.29-.256.376-.064.049-.32-.026-.324-.068a30.564 30.564 0 0 1-.209-1.83l-.01-.139c-.004-.056.132-.128.226-.207zm13.47 15.997c.098.026.192.06.286.094.346.162.693.316 1.032.493.162.087.32.188.437.324.132.151-.019.452-.203.41-.629-.136-1.242-.328-1.713-.794-.072-.072-.068-.245-.045-.361.011-.064.132-.109.207-.162zM21.323 11.75c.038.105.151.264.109.369-.277.69-.514 1.209-.767 1.718l.063-.141c-.03.064-.162.12-.237.109-.068-.008-.162-.102-.181-.177-.132-.576.286-1.611.749-1.875.045-.026.124 0 .264 0zm17.965 8.79c-.075-.045-.226-.102-.301-.211-.034-.041.068-.237.154-.301.337-.252.726-.513 1.129-.755l.065-.036c.113-.064.339-.068.425.004.075.068.087.324.019.414-.346.482-.779.847-1.491.885zm-2.386 4.13c-.301-.03-.429-.038-.553-.06-.053-.015-.132-.075-.132-.113a.454.454 0 0 1 .068-.264.529.529 0 0 1 .241-.151c.459-.136.922-.275 1.385-.388.102-.023.316.045.331.102.03.136-.008.301-.06.44-.03.075-.143.136-.23.162-.399.109-.802.207-1.054.271zm-13.839-3.317c-.03.143-.083.452-.188.745-.026.072-.226.139-.32.113-.09-.026-.2-.177-.196-.271a19.98 19.98 0 0 1 .09-1.623c.011-.117.162-.222.248-.331.102.109.267.203.294.328.06.282.045.576.075 1.039zM44.6 4.424c0-1.148.275-2.018.828-2.609a2.818 2.818 0 0 1 2.166-.896h-.005c.877 0 1.574.256 2.089.772.527.52.787 1.344.787 2.477s-.279 1.992-.836 2.571c-.553.576-1.295.866-2.221.866a2.82 2.82 0 0 1-1.972-.692l.003.003a2.4 2.4 0 0 1-.62-.973l-.005-.017a4.595 4.595 0 0 1-.219-1.417l.001-.093v.005zm2.96-3.411c-.64 0-1.16.282-1.57.851-.403.565-.602 1.397-.602 2.492s.188 1.897.572 2.402c.337.459.875.754 1.482.754l.057-.001h-.003c.64 0 1.167-.282 1.57-.851.41-.572.614-1.4.614-2.485 0-1.088-.196-1.886-.587-2.398a1.827 1.827 0 0 0-1.486-.765l-.049.001h.002zm4.544 6.554h-.791V.956h.791v3.042h3.072V.956h.787v6.611h-.787V4.092H52.1v3.475zm7.894 0h-.124l.824-6.611h.312l1.984 6.11 1.98-6.11h.309l.828 6.611h-.791l-.651-5.289-1.713 5.289h-.595l-1.732-5.222-.632 5.222zM71.349.956c.12.117.181.271.181.463a1.3 1.3 0 0 1-.105.482l-1.694 3.426v2.24h-.783V5.534L67.051.96h.806l1.807 4.262 1.645-3.317c.072-.158.105-.324.105-.489 0-.173-.049-.305-.143-.399l.075-.056zM1.333 9.306c.489-.023.968-.034 1.434-.034.478 0 .979.049 1.502.151.531.098 1.054.29 1.566.565.523.267.96.617 1.318 1.05.391.473.695 1.035.876 1.65l.008.033c.222.696.331 1.544.331 2.545s-.166 1.897-.501 2.699c-.32.787-.764 1.393-1.333 1.815-1.099.821-2.428 1.231-3.983 1.231-.546 0-1.118-.023-1.72-.068h-.832V9.306h1.333zm.052 11.505a13.714 13.714 0 0 0 1.718.013l-.035.001a4.291 4.291 0 0 0 1.623-.493l-.023.011a4.174 4.174 0 0 0 1.589-1.627l.011-.022c.478-.911.715-2.097.715-3.561 0-1.043-.124-1.943-.38-2.699a4.803 4.803 0 0 0-.892-1.703l.007.009a3.454 3.454 0 0 0-1.16-.857l-.022-.009a3.796 3.796 0 0 0-1.094-.38l-.024-.004a11.286 11.286 0 0 0-2.077.003l.045-.003v11.32zm43.483.132h-.215V9.291h.565l6.938 10.767V9.291h.215v11.652h-1.216l-6.287-9.656v9.656zM62.637 9.291h.218v6.66c0 1.739-.346 3.023-1.035 3.844a3.374 3.374 0 0 1-2.596 1.218l-.108-.002h.005c-.7 0-1.295-.06-1.784-.184a3.829 3.829 0 0 1-1.392-.721l.007.006c-.888-.689-1.333-2.074-1.333-4.16V9.288h1.385v6.645c0 2.022.301 3.369.915 4.047.26.294.584.526.95.675l.017.006c.346.12.753.184 1.235.184l.112.002c.983 0 1.86-.454 2.432-1.163l.005-.006c.648-.791.968-2.033.968-3.746V9.291zm5.903 11.652h-1.382V9.457h-2.884v-.166h7.168v.166h-2.899v11.486z"/></symbol><symbol id="icon-open-menu-btn" viewBox="0 0 60 32"><path d="M2 0h56a2 2 0 1 1 0 4H2a2 2 0 1 1 0-4zM2 14h56a2 2 0 1 1 0 4H2a2 2 0 1 1 0-4zM2 28h56a2 2 0 1 1 0 4H2a2 2 0 1 1 0-4z"/></symbol><symbol id="icon-people" viewBox="0 0 34 32"><path d="M11.556 0a6.516 6.516 0 0 0 0 13.032 6.516 6.516 0 0 0 0-13.032zm0 11.911a5.422 5.422 0 1 1 0-10.844 5.422 5.422 0 1 1 0 10.844zm13.297-9.209a4.89 4.89 0 0 0 0 9.778 4.89 4.89 0 0 0 0-9.778zm0 8.676a3.804 3.804 0 1 1 .012-7.589l-.012-.001a3.805 3.805 0 0 1 .013 7.591l-.012.001z"/><path d="M33.6 19.609a8.757 8.757 0 0 0-5.416-6.735l-.059-.021s-1.387 1.031-3.271.996h-.013a5.665 5.665 0 0 1-3.259-1.025l.018.012s-1.511.569-2.738 1.742c-1.12-.996-3.022-1.813-3.022-1.813s-1.778 1.333-4.302 1.298c-2.667 0-4.267-1.298-4.267-1.298S1.475 14.738.267 21.476c0 0-1.316 3.556 1.707 8.889h19.111s1.351-2.364 1.6-3.804h9.493c2.329-3.556 1.404-6.933 1.404-6.933zm-13.173 9.653H2.667c-2.311-4.409-1.316-7.627-1.316-7.627a10.35 10.35 0 0 1 5.768-7.618l.063-.027c1.252.737 2.757 1.172 4.364 1.172s3.113-.435 4.405-1.194l-.041.022c3.045 1.436 5.242 4.232 5.822 7.583l.009.061s.96 3.964-1.316 7.644zm11.129-3.786h-8.622c.338-1.92-.107-4.018-.107-4.018a11.369 11.369 0 0 0-3.147-6.152l.001.001a7.653 7.653 0 0 1 1.849-1.244 6.788 6.788 0 0 0 6.684 0c2.258 1.09 3.884 3.18 4.313 5.678l.007.046s.8 2.702-.96 5.689z"/></symbol><symbol id="icon-empty-star" viewBox="0 0 34 32"><path stroke-width="1.684" d="M16.034 1.819a.843.843 0 0 1 1.615-.006l.002.006 2.543 7.882a2.54 2.54 0 0 0 2.408 1.735h8.286a.842.842 0 0 1 .49 1.514l-.002.002-6.703 4.884a2.525 2.525 0 0 0-.905 2.831l-.005-.018 2.56 7.882a.842.842 0 0 1-1.3.925l.002.002-6.703-4.851c-.41-.3-.925-.48-1.482-.48s-1.072.18-1.489.485l.007-.005-6.703 4.851a.842.842 0 0 1-1.295-.932l-.002.006 2.56-7.882a2.523 2.523 0 0 0-.902-2.825l-.007-.005-6.703-4.851a.843.843 0 0 1 .505-1.516H11.085a2.527 2.527 0 0 0 2.399-1.734l.005-.018 2.543-7.882z"/></symbol><symbol id="icon-full-star" viewBox="0 0 34 32"><path d="M15.242 1.566c.228-.678.858-1.158 1.6-1.158s1.372.48 1.597 1.146l.003.012 2.56 7.865a1.688 1.688 0 0 0 1.6 1.179h8.287a1.684 1.684 0 0 1 .981 3.029l-.004.003-6.686 4.884a1.682 1.682 0 0 0-.619 1.898l-.003-.012 2.56 7.865a1.684 1.684 0 0 1-2.599 1.883l.005.003-6.669-4.901c-.275-.203-.62-.324-.994-.324s-.719.122-.998.328l.005-.003-6.703 4.884a1.684 1.684 0 0 1-2.59-1.898l-.003.012 2.56-7.865a1.682 1.682 0 0 0-.618-1.883l-.005-.003-6.686-4.867a1.684 1.684 0 0 1 .993-3.031h8.264c.75 0 1.385-.49 1.603-1.167l.003-.012 2.56-7.865z"/></symbol></defs></svg>