<svg aria-hidden="true" style="position: absolute; width: 0; height: 0; overflow: hidden;" version="1.1" xmlns="http://www.w3.org/2000/svg" xmlns:xlink="http://www.w3.org/1999/xlink">
<defs>
<symbol id="icon-chat" viewBox="0 0 47 32">
<path d="M35.988 14.129c0-8.542-9.009-14.129-18.018-14.129s-17.969 5.637-17.969 14.129c0 3.225 1.403 6.4 3.963 8.862 0.098 0.123 0.148 0.246 0.098 0.394-0.805 2.548-1.997 4.759-3.528 6.689l0.033-0.043c-0.246 0.32-0.271 0.738-0.098 1.083s0.517 0.566 0.911 0.566h0.025c3.84-0.098 8.271-1.182 11.003-3.889 0.098-0.074 0.246-0.123 0.369-0.098 1.698 0.418 3.446 0.615 5.218 0.615 9.009 0 17.969-5.637 17.969-14.154zM13.095 26.338c-0.123-0.031-0.264-0.049-0.409-0.049-0.485 0-0.923 0.197-1.24 0.516l-0 0c-2.732 2.708-7.212 3.298-9.354 3.446 1.407-1.855 2.54-4.014 3.282-6.347l0.042-0.151c0.040-0.14 0.064-0.301 0.064-0.468 0-0.492-0.204-0.937-0.531-1.255l-0-0c-2.139-1.965-3.491-4.758-3.545-7.867l-0-0.010c-0.025-7.089 7.434-12.825 16.566-12.825s16.615 5.735 16.615 12.8c0 7.015-7.458 12.751-16.615 12.751-1.674 0-3.323-0.197-4.898-0.566z"></path>
<path d="M40.369 25.526c4.012-2.018 6.4-5.465 6.4-9.206 0-5.292-4.775-9.822-11.372-10.757-0.004-0-0.010-0-0.015-0-0.381 0-0.689 0.309-0.689 0.689 0 0.316 0.213 0.582 0.502 0.664l0.005 0.001c5.908 0.837 10.191 4.8 10.191 9.403 0 3.2-2.092 6.203-5.612 7.975-0.565 0.284-0.947 0.859-0.947 1.523 0 0.123 0.013 0.243 0.038 0.359l-0.002-0.011c0.345 1.575 1.058 3.028 1.625 4.012-4.037-0.689-5.588-2.634-6.055-3.446-0.297-0.518-0.847-0.861-1.477-0.862h-0.049c-0.738 0-1.526-0.049-2.265-0.148-0.004-0-0.010-0-0.015-0-0.381 0-0.689 0.309-0.689 0.689 0 0.316 0.213 0.582 0.502 0.664l0.005 0.001c0.812 0.123 1.649 0.172 2.462 0.172h0.049c0.123 0 0.246 0.049 0.271 0.148 1.871 3.2 6.154 4.037 7.877 4.234 0.046 0.008 0.1 0.012 0.154 0.012 0.347 0 0.653-0.18 0.828-0.451l0.002-0.004c0.094-0.148 0.15-0.329 0.15-0.523 0-0.21-0.065-0.404-0.177-0.563l0.002 0.003c-0.542-0.812-1.477-2.462-1.846-4.234-0.003-0.017-0.005-0.038-0.005-0.058 0-0.125 0.072-0.233 0.176-0.286l0.002-0.001zM7.335 11.692c-0.073-0.008-0.157-0.012-0.242-0.012-1.319 0-2.388 1.069-2.388 2.388s1.069 2.388 2.388 2.388c0.085 0 0.17-0.004 0.252-0.013l-0.010 0.001c1.21-0.127 2.146-1.142 2.146-2.375s-0.935-2.248-2.135-2.374l-0.010-0.001zM7.335 15.065c-0.557 0-1.009-0.452-1.009-1.009s0.452-1.009 1.009-1.009v0c0.557 0 1.009 0.452 1.009 1.009s-0.452 1.009-1.009 1.009v0zM14.105 11.692c-0.073-0.008-0.157-0.012-0.242-0.012-1.319 0-2.388 1.069-2.388 2.388s1.069 2.388 2.388 2.388c0.085 0 0.169-0.004 0.252-0.013l-0.010 0.001c1.21-0.127 2.146-1.142 2.146-2.375s-0.935-2.248-2.135-2.374l-0.010-0.001zM14.105 15.065c-0.557 0-1.009-0.452-1.009-1.009s0.452-1.009 1.009-1.009v0c0.557 0 1.009 0.452 1.009 1.009s-0.452 1.009-1.009 1.009v0zM20.874 11.692c-0.073-0.008-0.157-0.012-0.242-0.012-1.319 0-2.388 1.069-2.388 2.388s1.069 2.388 2.388 2.388c0.085 0 0.169-0.004 0.252-0.013l-0.010 0.001c1.21-0.127 2.146-1.142 2.146-2.375s-0.935-2.248-2.135-2.374l-0.010-0.001zM20.874 15.065c-0.557 0-1.009-0.452-1.009-1.009s0.452-1.009 1.009-1.009v0c0.557 0 1.009 0.452 1.009 1.009s-0.452 1.009-1.009 1.009v0zM27.643 11.692c-0.073-0.008-0.157-0.012-0.242-0.012-1.319 0-2.388 1.069-2.388 2.388s1.069 2.388 2.388 2.388c0.085 0 0.169-0.004 0.252-0.013l-0.010 0.001c1.21-0.127 2.146-1.142 2.146-2.375s-0.935-2.248-2.135-2.374l-0.010-0.001zM27.643 15.065c-0.557 0-1.009-0.452-1.009-1.009s0.452-1.009 1.009-1.009v0c0.557 0 1.009 0.452 1.009 1.009s-0.452 1.009-1.009 1.009v0z"></path>
</symbol>
<symbol id="icon-clock" viewBox="0 0 32 32">
<path d="M16 0c-8.524 0.403-15.283 7.412-15.283 16s6.758 15.597 15.246 15.999l0.036 0.001c8.524-0.403 15.283-7.412 15.283-16s-6.758-15.597-15.246-15.999l-0.036-0.001zM16 30.939c-7.949-0.389-14.246-6.929-14.246-14.939s6.297-14.55 14.211-14.938l0.035-0.001c7.949 0.389 14.246 6.929 14.246 14.939s-6.297 14.55-14.212 14.938l-0.035 0.001z"></path>
<path d="M16.539 13.878v-5.406c0-0.298-0.241-0.539-0.539-0.539s-0.539 0.241-0.539 0.539v0 5.406c-0.741 0.202-1.331 0.775-1.516 1.516h-3.806c-0.298 0-0.539 0.241-0.539 0.539s0.241 0.539 0.539 0.539v0h3.806c0.24 0.938 1.078 1.62 2.075 1.62 1.181 0 2.139-0.958 2.139-2.139 0-0.997-0.682-1.835-1.606-2.072l-0.015-0.003zM16 17.011c-0.591 0-1.069-0.479-1.069-1.069s0.479-1.069 1.069-1.069v0c0.591 0 1.069 0.479 1.069 1.069s-0.479 1.069-1.069 1.069v0zM16 5.272c0.286 0 0.539-0.236 0.539-0.539v-0.522c0-0.298-0.241-0.539-0.539-0.539s-0.539 0.241-0.539 0.539v0 0.522c0 0.303 0.253 0.539 0.539 0.539zM16 26.611c-0 0-0 0-0 0-0.292 0-0.529 0.232-0.539 0.521l-0 0.001v0.539c0 0.298 0.241 0.539 0.539 0.539s0.539-0.241 0.539-0.539v0-0.539c-0.009-0.29-0.247-0.522-0.539-0.522-0 0-0 0-0 0v0zM27.739 15.411h-0.539c-0.029-0.005-0.061-0.008-0.095-0.008-0.298 0-0.539 0.241-0.539 0.539s0.241 0.539 0.539 0.539c0.034 0 0.066-0.003 0.098-0.009l-0.003 0h0.539c0.029 0.005 0.061 0.008 0.095 0.008 0.298 0 0.539-0.241 0.539-0.539s-0.241-0.539-0.539-0.539c-0.034 0-0.066 0.003-0.098 0.009l0.003-0.001zM4.8 15.411h-0.539c-0.029-0.005-0.061-0.008-0.095-0.008-0.298 0-0.539 0.241-0.539 0.539s0.241 0.539 0.539 0.539c0.034 0 0.066-0.003 0.098-0.009l-0.003 0h0.539c0.029 0.005 0.061 0.008 0.095 0.008 0.298 0 0.539-0.241 0.539-0.539s-0.241-0.539-0.539-0.539c-0.034 0-0.066 0.003-0.098 0.009l0.003-0.001zM23.916 7.259l-0.371 0.387c-0.139 0.099-0.228 0.259-0.228 0.441 0 0.298 0.241 0.539 0.539 0.539 0.186 0 0.349-0.094 0.446-0.236l0.001-0.002 0.371-0.371c0.123-0.1 0.2-0.25 0.2-0.419 0-0.298-0.241-0.539-0.539-0.539-0.169 0-0.32 0.078-0.419 0.199l-0.001 0.001zM7.697 23.478l-0.371 0.371c-0.123 0.1-0.2 0.25-0.2 0.419 0 0.298 0.241 0.539 0.539 0.539 0.169 0 0.32-0.078 0.419-0.199l0.001-0.001 0.371-0.371c0.123-0.1 0.2-0.25 0.2-0.419 0-0.298-0.241-0.539-0.539-0.539-0.169 0-0.32 0.078-0.419 0.199l-0.001 0.001zM24.303 23.478c-0.1-0.123-0.25-0.2-0.419-0.2-0.298 0-0.539 0.241-0.539 0.539 0 0.169 0.078 0.32 0.199 0.419l0.001 0.001 0.371 0.371c0.1 0.123 0.25 0.2 0.419 0.2 0.298 0 0.539-0.241 0.539-0.539 0-0.169-0.078-0.32-0.199-0.419l-0.001-0.001-0.371-0.371zM8.084 7.259c-0.1-0.123-0.25-0.2-0.419-0.2-0.298 0-0.539 0.241-0.539 0.539 0 0.169 0.078 0.32 0.199 0.419l0.001 0.001 0.371 0.371c0.097 0.096 0.231 0.156 0.379 0.156s0.282-0.059 0.379-0.156l-0 0c0.091-0.096 0.148-0.227 0.148-0.371s-0.056-0.274-0.148-0.371l0 0-0.371-0.404z"></path>
</symbol>
<symbol id="icon-close-menu-btn" viewBox="0 0 32 32">
<path d="M30.347 32c0.902-0.015 1.627-0.749 1.627-1.653 0-0.45-0.18-0.858-0.471-1.156l0 0-28.676-28.711c-0.305-0.387-0.775-0.634-1.302-0.634-0.913 0-1.653 0.74-1.653 1.653 0 0.531 0.251 1.004 0.64 1.306l0.004 0.003 28.693 28.711c0.32 0.32 0.747 0.48 1.156 0.48z"></path>
<path d="M1.653 32c0.409 0 0.836-0.16 1.156-0.48l28.711-28.711c0.215-0.276 0.344-0.628 0.344-1.010 0-0.913-0.74-1.653-1.653-1.653-0.386 0-0.742 0.133-1.023 0.355l0.003-0.003-28.711 28.676c-0.302 0.3-0.489 0.715-0.489 1.173 0 0.913 0.74 1.653 1.653 1.653 0.003 0 0.006 0 0.009-0h-0z"></path>
</symbol>
<symbol id="icon-instagram" viewBox="0 0 32 32">
<path d="M16.32 32h-0.32c-2.52 0-4.82-0.060-7.080-0.2-2.083-0.101-3.97-0.861-5.478-2.074l0.018 0.014c-1.44-1.201-2.483-2.835-2.928-4.7l-0.012-0.060c-0.44-1.7-0.46-3.38-0.48-4.98-0.014-1.18-0.022-2.574-0.022-3.97s0.008-2.79 0.024-4.181l-0.002 0.211c0-1.64 0.040-3.32 0.48-5.020 0.5-1.98 1.5-3.58 2.94-4.76 1.5-1.24 3.4-1.96 5.46-2.080 2.26-0.14 4.56-0.2 7.080-0.2s4.82 0.060 7.080 0.2c2.060 0.12 3.96 0.84 5.46 2.060 1.44 1.2 2.44 2.78 2.94 4.76 0.44 1.7 0.46 3.4 0.48 5l0.040 3.98-0.040 3.96c0 1.64-0.040 3.32-0.48 5.020-0.457 1.925-1.5 3.559-2.926 4.749l-0.014 0.011c-1.5 1.22-3.4 1.94-5.46 2.060-2.16 0.14-4.38 0.2-6.76 0.2zM16 29.5c2.46 0 4.74-0.060 6.94-0.2 2.982-0.023 5.47-2.108 6.112-4.897l0.008-0.043c0.36-1.4 0.4-2.94 0.4-4.44 0.014-1.165 0.021-2.542 0.021-3.92s-0.008-2.755-0.023-4.13l0.002 0.21c0.005-0.158 0.007-0.345 0.007-0.532 0-1.391-0.148-2.747-0.43-4.054l0.023 0.126c-0.327-1.381-1.071-2.555-2.090-3.412l-0.010-0.008c-1.096-0.882-2.488-1.437-4.006-1.5l-0.014-0c-2.2-0.14-4.48-0.2-6.94-0.2s-4.74 0.060-6.94 0.2c-2.982 0.023-5.47 2.108-6.112 4.897l-0.008 0.043c-0.36 1.4-0.4 2.94-0.4 4.44-0.014 1.165-0.022 2.542-0.022 3.92s0.008 2.755 0.024 4.129l-0.002-0.209c0 1.5 0.040 3.020 0.4 4.46s1.080 2.6 2.1 3.42c1.12 0.9 2.46 1.4 4.020 1.5 2.2 0.14 4.48 0.2 6.94 0.2zM15.94 23.82c-4.324 0-7.83-3.506-7.83-7.83s3.506-7.83 7.83-7.83v0c4.324 0 7.83 3.506 7.83 7.83s-3.506 7.83-7.83 7.83v0zM15.94 10.68c-2.938 0-5.32 2.382-5.32 5.32s2.382 5.32 5.32 5.32v0c2.938 0 5.32-2.382 5.32-5.32s-2.382-5.32-5.32-5.32v0zM24.62 5.68c-1.038 0-1.88 0.842-1.88 1.88s0.842 1.88 1.88 1.88v0c1.038 0 1.88-0.842 1.88-1.88s-0.842-1.88-1.88-1.88v0z"></path>
</symbol>
<symbol id="icon-twitter" viewBox="0 0 32 32">
<path d="M32 5.44c-1.2 0.6-2.46 0.98-3.78 1.16 1.39-0.961 2.412-2.367 2.868-4.009l0.012-0.051c-1.26 0.86-2.66 1.44-4.16 1.78-1.145-1.402-2.866-2.296-4.796-2.32l-0.004-0c-3.58 0-6.54 3.3-6.54 7.34 0 0.58 0.040 1.14 0.16 1.66-5.621-0.387-10.49-3.301-13.522-7.603l-0.038-0.057c-0.567 1.075-0.9 2.348-0.9 3.7v0c0 2.54 1.18 4.8 2.92 6.1-1.101-0.037-2.118-0.367-2.985-0.914l0.025 0.014v0.080c0 3.56 2.28 6.52 5.26 7.2-0.512 0.161-1.101 0.254-1.711 0.254-0.442 0-0.873-0.049-1.288-0.141l0.039 0.007c0.84 2.9 3.26 5.040 6.12 5.1-2.171 1.952-5.058 3.146-8.224 3.146-0.513 0-1.019-0.031-1.516-0.092l0.060 0.006c2.783 2.049 6.277 3.279 10.060 3.28h0c12.080 0 18.68-11.18 18.68-20.86l-0.020-0.96c1.305-1.063 2.398-2.328 3.244-3.755l0.036-0.065z"></path>
</symbol>
<symbol id="icon-facebook" viewBox="0 0 32 32">
<path d="M22.52 0h-3.62c-4.060 0-6.7 3.1-6.7 7.88v3.62h-3.64c-0.3 0-0.56 0.3-0.56 0.66v5.26c0 0.36 0.26 0.66 0.56 0.66h3.64v13.26c0 0.36 0.26 0.66 0.58 0.66h4.74c0.32 0 0.56-0.3 0.56-0.66v-13.26h4.26c0.32 0 0.56-0.3 0.56-0.66v-5.26c0-0.004 0-0.009 0-0.014 0-0.17-0.060-0.326-0.161-0.447l0.001 0.001c-0.096-0.118-0.238-0.194-0.399-0.2l-0.001-0h-4.26v-3.080c0-1.48 0.32-2.22 2-2.22h2.44c0.3 0 0.56-0.3 0.56-0.66v-4.88c0-0.36-0.26-0.66-0.56-0.66z"></path>
</symbol>
<symbol id="icon-chef-hat" viewBox="0 0 32 32">
<path d="M23.158 9.634c-0.005 0-0.011 0-0.017 0-0.251 0-0.455-0.204-0.455-0.455 0-0 0-0 0-0v0c0-3.693-2.994-6.686-6.686-6.686s-6.686 2.994-6.686 6.686v0c0 0.256-0.207 0.463-0.463 0.463s-0.463-0.207-0.463-0.463v0c0-4.204 3.408-7.613 7.613-7.613s7.613 3.408 7.613 7.613v0c0 0.251-0.204 0.455-0.455 0.455v0z"></path>
<path d="M24.488 19.975c-0.251 0-0.455-0.204-0.455-0.455s0.204-0.455 0.455-0.455v0c3.623-0.028 6.555-2.948 6.602-6.564l0-0.004c-0.025-3.646-2.986-6.591-6.636-6.591-0.735 0-1.441 0.119-2.102 0.34l0.047-0.014c-0.022 0.004-0.047 0.006-0.073 0.006-0.251 0-0.455-0.204-0.455-0.455 0-0.18 0.104-0.335 0.256-0.409l0.003-0.001c0.673-0.213 1.446-0.335 2.248-0.335 2.086 0 3.978 0.828 5.366 2.173l-0.002-0.002c1.37 1.349 2.228 3.216 2.257 5.283l0 0.005c-0.056 4.119-3.39 7.44-7.508 7.478l-0.004 0zM7.512 19.975c-4.122-0.037-7.455-3.359-7.512-7.473l-0-0.005c0.044-4.143 3.412-7.485 7.562-7.485 0.881 0 1.726 0.151 2.512 0.427l-0.053-0.016c0.108 0.084 0.177 0.214 0.177 0.36 0 0.251-0.204 0.455-0.455 0.455-0.051 0-0.1-0.008-0.146-0.024l0.003 0.001c-0.593-0.187-1.274-0.295-1.981-0.295-1.836 0-3.502 0.729-4.724 1.914l0.002-0.002c-1.211 1.189-1.967 2.837-1.987 4.661l-0 0.004c0.047 3.626 2.989 6.55 6.617 6.568h0.002c0.251 0 0.455 0.204 0.455 0.455s-0.204 0.455-0.455 0.455v0z"></path>
<path d="M24.488 31.343h-16.977c-0.251 0-0.455-0.204-0.455-0.455v0-11.352c0-0.251 0.204-0.455 0.455-0.455s0.455 0.204 0.455 0.455v0 10.914h16.067v-10.914c0-0.251 0.204-0.455 0.455-0.455s0.455 0.204 0.455 0.455v0 11.368c0 0.251-0.204 0.455-0.455 0.455v0z"></path>
<path d="M27.672 26.914h-16.977c-0.251 0-0.455-0.204-0.455-0.455s0.204-0.455 0.455-0.455h16.977c0.251 0 0.455 0.204 0.455 0.455s-0.204 0.455-0.455 0.455v0z"></path>
</symbol>
<symbol id="icon-phone" viewBox="0 0 32 32">
<path d="M29.44 20.48c-1.969 0-3.889-0.295-5.711-0.886-0.886-0.295-1.994-0.025-2.535 0.492l-3.594 2.683c-3.89-1.888-6.987-4.898-8.933-8.606l-0.052-0.108 2.708-3.471c0.457-0.447 0.741-1.071 0.741-1.76 0-0.277-0.046-0.544-0.13-0.793l0.005 0.017c-0.577-1.654-0.911-3.56-0.911-5.544 0-0.007 0-0.013 0-0.020v0.001c-0.025-1.354-1.157-2.486-2.585-2.486h-5.883c-1.403 0-2.56 1.132-2.56 2.511 0 15.803 13.194 28.677 29.44 28.677 1.403 0 2.56-1.108 2.56-2.511v-5.711c0-1.378-1.157-2.486-2.56-2.486z"></path>
</symbol>
<symbol id="icon-geo" viewBox="0 0 23 32">
<path d="M11.733 0c6.464 0 11.733 5.12 11.733 11.435 0 2.496-0.811 4.864-2.347 6.869l-8.661 11.349-0.085 0.064c-0.427 0.448-1.067 0.341-1.365-0.064-2.475-3.2-7.061-9.28-8.832-11.584-1.358-1.826-2.175-4.124-2.176-6.613v-0c0.084-6.345 5.247-11.457 11.604-11.457 0.045 0 0.091 0 0.136 0.001l-0.007-0zM11.733 17.6c3.477 0 6.336-2.773 6.336-6.165s-2.859-6.187-6.336-6.187c-0.019-0-0.042-0-0.065-0-3.434 0-6.223 2.76-6.271 6.183l-0 0.005c0 3.413 2.859 6.187 6.336 6.187z"></path>
</symbol>
<symbol id="icon-logo" viewBox="0 0 72 32">
<path d="M42.451 16c0 0.26-0.008 0.52 0 0.779 0.087 2.654-0.742 5.045-2.071 7.296-0.444 0.753-0.87 1.525-1.254 2.315-0.283 0.631-0.794 1.118-1.424 1.364l-0.018 0.006c-0.384 0.147-0.738 0.403-1.058 0.666-1.403 1.147-3.046 2.067-4.833 2.674l-0.11 0.033c-1.19 0.407-2.413 0.768-3.704 0.753-0.388-0.008-0.772 0.113-1.16 0.113-0.384 0-0.772-0.124-1.152-0.109-1.668 0.075-3.211-0.44-4.744-0.979-1.672-0.584-3.147-1.513-4.536-2.616-1.961-1.559-3.358-3.52-4.386-5.764-0.553-1.212-1.005-2.462-1.129-3.802-0.023-0.226-0.098-0.448-0.162-0.663-0.467-1.506-0.2-2.985 0.090-4.488 0.211-1.281 0.516-2.416 0.919-3.503l-0.042 0.13c1.141-2.902 3.012-5.309 5.389-7.070l0.043-0.031c1.947-1.456 4.299-2.481 6.857-2.887l0.089-0.012c0.763-0.13 1.642-0.205 2.538-0.205 2.148 0 4.196 0.428 6.064 1.203l-0.105-0.039c1.374 0.55 2.669 1.242 3.802 2.161 1.059 0.891 2.010 1.835 2.878 2.85l0.028 0.033c0.817 0.926 1.393 2.033 1.912 3.162 0.806 1.758 1.333 3.584 1.28 5.542-0.011 0.365-0.004 0.723-0.004 1.080zM41.333 12.424c-0.075-0.614-0.128-1.325-0.279-2.018-0.429-1.995-1.581-3.546-3.125-4.819-0.87-0.723-1.822-1.348-2.76-1.988-0.3-0.221-0.654-0.388-1.038-0.478l-0.019-0.004c-0.821-0.175-1.81-0.313-2.817-0.384l-0.071-0.004c-1.679-0.087-3.185-0.52-4.454-1.683-0.93-0.858-1.946-0.941-2.918-0.188-1.096 0.855-2.349 1.355-3.622 1.856-0.934 0.365-1.833 0.821-2.733 1.276-0.749 0.376-1.186 0.971-1.175 1.867 0 0.011 0 0.023 0 0.036 0 0.5-0.277 0.936-0.686 1.161l-0.007 0.003c-0.388 0.233-0.76 0.489-1.114 0.772-0.994 0.783-1.769 1.664-1.935 3.027-0.132 1.080-0.459 2.146-1.201 3.038-0.238 0.293-0.397 0.659-0.44 1.060l-0.001 0.009c-0.068 0.809-0.038 1.626-0.019 2.436 0.004 0.218 0.098 0.452 0.211 0.64 0.293 0.52 0.569 0.95 0.864 1.365l-0.032-0.047c0.727 1.013 1.359 2.048 1.506 3.332 0.143 1.242 0.742 2.255 1.758 3.027 1.476 1.122 2.895 2.312 4.39 3.403 0.802 0.587 1.664 1.103 2.722 1.224 1.058 0.117 2.097 0.407 3.049 0.941 0.2 0.105 0.414 0.173 0.64 0.196 1.34 0.143 2.583-0.188 3.761-0.817 0.369-0.196 0.749-0.376 1.129-0.546 0.919-0.41 1.939-0.678 2.741-1.254 0.892-0.64 1.845-0.922 2.869-1.099 0.438-0.065 0.817-0.279 1.090-0.589l0.002-0.002c0.343-0.388 0.659-0.802 1.016-1.178 0.371-0.349 0.625-0.817 0.703-1.343l0.002-0.012c0.135-0.879 0.461-1.663 0.934-2.337l-0.012 0.017c0.723-1.142 1.236-2.489 1.45-3.934l0.007-0.056c0.060-0.376 0.094-0.693-0.090-1.024-0.538-0.952-0.32-2.033-0.489-3.049-0.087-0.55 0.113-1.148 0.196-1.83zM34.869 2.914c-0.226-0.252-0.301-0.365-0.403-0.437-0.184-0.128-0.388-0.23-0.584-0.343-1.687-0.949-3.535-1.412-5.421-1.743-0.38-0.068-0.779-0.038-1.167-0.023-0.102 0.004-0.222 0.102-0.286 0.188-0.026 0.041 0.038 0.181 0.094 0.248 0.414 0.491 0.949 0.867 1.56 1.084l0.025 0.008c0.984 0.366 2.121 0.593 3.306 0.625l0.014 0c0.478 0.011 0.956 0.102 1.431 0.169 0.414 0.056 0.817 0.124 1.431 0.222zM20.533 30.283c-1.129-0.922-2.127-1.751-3.136-2.556-0.836-0.666-1.69-1.31-2.545-1.95-0.098-0.075-0.248-0.072-0.459-0.124 1.032 1.728 4.472 4.352 6.136 4.631zM12.902 8.7c0.685-0.523 1.318-1.073 2.010-1.525 0.971-0.632 1.344-1.423 1.114-2.775-0.689 0.565-1.182 1.242-1.713 1.864-0.565 0.651-0.979 1.423-1.449 2.153-0.038 0.060 0.023 0.177 0.038 0.282zM35.934 28.42c-0.64-0.041-1.28 0.068-1.679 0.414-0.757 0.651-1.66 0.979-2.579 1.306-0.482 0.169-0.937 0.422-1.393 0.659-0.060 0.034-0.072 0.211-0.056 0.312 0 0.038 0.173 0.094 0.241 0.072 0.828-0.282 1.679-0.508 2.458-0.885 0.956-0.459 1.856-1.039 2.771-1.581 0.098-0.053 0.147-0.177 0.237-0.297zM11.595 19.384c-0.181 0.538-0.147 0.836-0.030 1.152 0.32 0.885 0.512 1.815 1.088 2.586 0.215 0.286 0.256 0.926 0.651 0.791 0.346-0.124-0.060-0.629-0.083-0.971-0.090-1.303-0.776-2.353-1.626-3.561zM17.777 3.136l0.083 0.132c0.478-0.177 0.956-0.346 1.431-0.535 1.020-0.41 2.044-0.828 3.061-1.254 0.216-0.102 0.401-0.224 0.568-0.368l-0.003 0.003c0.053-0.038 0.045-0.177 0.026-0.26-0.008-0.038-0.102-0.075-0.158-0.079-0.098 0-0.188 0.019-0.282 0.045-1.502 0.445-2.808 1.018-4.023 1.729l0.085-0.046c-0.29 0.162-0.527 0.422-0.791 0.632zM42.071 17.141c0.083-0.094 0.151-0.136 0.151-0.181 0.139-1.419-0.011-2.827-0.207-4.232-0.011-0.075-0.109-0.173-0.173-0.181-0.075-0.011-0.188 0.049-0.233 0.113-0.075 0.109-0.12 0.226-0.132 0.354-0.075 1.16 0 2.323 0.226 3.464 0.045 0.226 0.233 0.429 0.369 0.666zM11.26 13.225c0.542-0.207 0.621-0.58 0.678-0.919 0.143-0.821 0.497-1.608 0.376-2.477-0.565 1.035-1.062 2.086-1.054 3.392zM24.328 31.232c-1.208-0.538-1.54-0.591-2.616-0.444 0.459 0.173 0.866 0.452 1.28 0.452 0.433 0.008 0.9 0.535 1.336-0.008z"></path>
<path d="M26.824 20.593c-0.015 0-0.033 0.001-0.051 0.001-0.753 0-1.411-0.41-1.762-1.019l-0.005-0.010c-0.392-0.625-1.043-0.949-1.641-1.333-0.753-0.486-1.363-1.032-1.54-2.014-0.12-0.663 0.023-1.242 0.29-1.769 0.256-0.459 0.614-0.832 1.045-1.099l0.013-0.007c0.463-0.282 0.843-0.55 1.054-1.073 0.245-0.602 0.851-0.64 1.389-0.745 0.508-0.102 1.020-0.169 1.521-0.297 0.681-0.173 1.303-0.12 1.8 0.414 0.377 0.388 0.82 0.709 1.313 0.944l0.028 0.012c0.523 0.264 0.693 0.565 0.527 1.107-0.109 0.369 0 0.621 0.136 0.915 0.151 0.32 0.305 0.648 0.41 0.986 0.343 1.129-0.053 2.078-1.111 2.579-0.655 0.312-1.16 0.727-1.321 1.457-0.052 0.263-0.249 0.47-0.504 0.534l-0.005 0.001c-0.527 0.154-1.054 0.282-1.585 0.418zM30.298 15.864c0.015-1.988-1.491-3.576-3.452-3.576-1.758 0-3.528 1.186-3.595 3.464-0 0.014-0 0.029-0 0.045 0 1.912 1.54 3.465 3.447 3.486l0.002 0c2.409 0.015 3.55-1.66 3.599-3.418zM23.228 17.766c0-0.256 0.023-0.388-0.004-0.504-0.264-1.080-0.429-2.146 0.162-3.189 0.038-0.075-0.056-0.226-0.090-0.346-0.113 0.038-0.256 0.045-0.343 0.117-0.529 0.45-0.862 1.117-0.862 1.861 0 0.864 0.449 1.623 1.127 2.056l0.010 0.006zM26.842 11.787c0.414 0.151 0.64 0.256 0.888 0.32 0.896 0.237 1.66 0.666 2.195 1.453 0.105 0.151 0.241 0.384 0.44 0.207 0.109-0.094 0.143-0.38 0.083-0.527-0.083-0.188-0.271-0.429-0.452-0.467-0.497-0.102-0.764-0.459-1.088-0.772-0.538-0.52-1.144-0.678-2.063-0.215zM26.79 19.61l-0.011-0.075c-0.26 0-0.52-0.023-0.776 0.008-0.132 0.019-0.248 0.128-0.376 0.196 0.113 0.102 0.215 0.256 0.343 0.29 0.696 0.177 1.4 0.215 2.086-0.056 0.117-0.045 0.248-0.105 0.32-0.2 0.064-0.079 0.087-0.222 0.075-0.331-0.008-0.038-0.169-0.098-0.248-0.087-0.471 0.075-0.941 0.166-1.408 0.252h-0.004zM30.347 17.57c0.482-0.087 0.696-0.361 0.727-0.776 0.019-0.354 0.015-0.708-0.015-1.058-0.008-0.094-0.139-0.177-0.211-0.264-0.109 0.102-0.324 0.237-0.305 0.301 0.196 0.606-0.215 1.152-0.196 1.796zM34.76 20.322c-0.026 0.015-0.139 0.109-0.26 0.12-0.109 0.015-0.271-0.023-0.339-0.102-0.323-0.359-0.643-0.749-0.947-1.153l-0.032-0.044c-0.083-0.109-0.113-0.403-0.072-0.425 0.151-0.083 0.448-0.169 0.512-0.098 0.388 0.425 0.73 0.896 1.080 1.355 0.034 0.045 0.023 0.124 0.056 0.346zM18.349 23.669c0.181 0.015 0.535 0.026 0.881 0.083 0.087 0.015 0.2 0.184 0.2 0.286 0 0.098-0.098 0.271-0.188 0.294-0.666 0.166-1.336 0.207-1.928-0.241-0.059-0.055-0.095-0.133-0.095-0.22 0-0.010 0-0.020 0.001-0.030l-0 0.001c0.011-0.064 0.113-0.158 0.188-0.166 0.256-0.019 0.512-0.008 0.941-0.008zM39.371 9.562l0.256 0.139c-0.075 0.128-0.117 0.335-0.226 0.373-0.478 0.177-0.979 0.32-1.48 0.422-0.143 0.030-0.354-0.113-0.489-0.23-0.151-0.136-0.060-0.433 0.132-0.463 0.572-0.087 1.148-0.151 1.807-0.241zM22.298 26.541c0.264 0.124 0.489 0.158 0.602 0.294 0.301 0.373 0.572 0.764 0.821 1.175 0.12 0.192 0.011 0.407-0.192 0.459-0.113 0.034-0.312-0.056-0.395-0.158-0.304-0.364-0.603-0.768-0.877-1.189l-0.030-0.049c-0.064-0.102 0.038-0.309 0.072-0.531zM32.828 11.019c0.015-0.113 0-0.245 0.049-0.297 0.075-0.064 0.226-0.12 0.301-0.083 0.102 0.049 0.169 0.181 0.237 0.286 0.196 0.29 0.388 0.584 0.572 0.881 0.083 0.136 0.196 0.279 0.203 0.422 0.008 0.132-0.075 0.305-0.173 0.399-0.056 0.049-0.286 0.015-0.343-0.053-0.373-0.474-0.817-0.915-0.851-1.555zM33.98 6.008c-0.079 0.482-0.113 0.836-0.207 1.178-0.056 0.181-0.169 0.343-0.32 0.463-0.109 0.087-0.294 0.075-0.444 0.105-0.011-0.139-0.053-0.286-0.030-0.418 0.079-0.414 0.184-0.817 0.279-1.224 0.008-0.030 0.004-0.064 0.015-0.098 0.075-0.245 0.233-0.429 0.489-0.328 0.128 0.049 0.188 0.275 0.218 0.32zM27.053 9.141c0.226 0.026 0.52 0.041 0.798 0.113 0.094 0.019 0.233 0.192 0.218 0.264-0.030 0.136-0.139 0.309-0.256 0.346-0.184 0.056-0.376 0.060-0.565 0-0.14-0.056-0.301-0.089-0.471-0.089s-0.331 0.033-0.479 0.092l0.009-0.003c-0.211 0.090-0.407 0-0.463-0.211-0.075-0.282 0.136-0.418 0.373-0.459 0.252-0.038 0.516-0.038 0.836-0.053zM32.064 22.968c-0.090 0.399-0.162 0.749-0.26 1.092-0.019 0.068-0.158 0.154-0.218 0.139-0.109-0.023-0.26-0.109-0.279-0.196-0.027-0.099-0.042-0.213-0.042-0.33 0-0.087 0.008-0.172 0.025-0.254l-0.001 0.008c0.075-0.35 0.151-0.685 0.011-1.039-0.068-0.173-0.049-0.448 0.211-0.444 0.139 0 0.339 0.173 0.403 0.316 0.105 0.226 0.113 0.497 0.151 0.708zM28.111 22.867c-0.053 0.094-0.075 0.203-0.147 0.252-0.422 0.29-0.847 0.584-1.291 0.84-0.113 0.064-0.312 0.023-0.459-0.019-0.211-0.064-0.256-0.343-0.075-0.456 0.482-0.312 0.971-0.621 1.476-0.907 0.079-0.049 0.241 0 0.343 0.053 0.072 0.038 0.102 0.151 0.154 0.237zM22.724 4.156c0.068 0.038 0.196 0.075 0.215 0.139 0.166 0.617 0.328 1.239 0.463 1.864 0.038 0.173-0.192 0.271-0.346 0.166-0.489-0.328-0.791-1.536-0.508-2.040 0.030-0.053 0.102-0.075 0.177-0.128zM28.725 5.911c-0.151-0.098-0.305-0.147-0.328-0.23-0.023-0.094 0.053-0.248 0.136-0.324 0.358-0.316 0.73-0.617 1.118-0.896 0.128-0.090 0.399-0.154 0.501-0.083 0.237 0.166 0.113 0.399-0.053 0.572-0.222 0.23-0.44 0.474-0.696 0.663-0.196 0.139-0.448 0.2-0.678 0.301zM19.49 9.178l-0.354 0.335c-0.102-0.113-0.252-0.203-0.297-0.331-0.122-0.343-0.275-0.862-0.411-1.388l-0.037-0.166c-0.019-0.075 0.041-0.218 0.102-0.245 0.098-0.038 0.264-0.056 0.335 0 0.151 0.109 0.316 0.256 0.365 0.414 0.124 0.429 0.192 0.873 0.297 1.382zM15.601 17.758c-0.324 0.595-0.572 1.205-1.178 1.532-0.102 0.053-0.328-0.015-0.437-0.102-0.188-0.151 0-0.271 0.090-0.395 0.282-0.392 0.546-0.802 0.851-1.178 0.075-0.098 0.275-0.143 0.41-0.132 0.090 0.011 0.166 0.166 0.264 0.275zM19.283 17.807c0.169 0.098 0.294 0.128 0.316 0.192 0.038 0.105 0.056 0.271 0 0.346-0.094 0.117-0.252 0.184-0.392 0.264-0.358 0.203-0.708 0.418-1.077 0.595-0.113 0.053-0.32 0.038-0.418-0.038-0.207-0.147-0.136-0.38 0.030-0.486 0.508-0.316 1.043-0.595 1.54-0.873zM37.7 15.108c-0.132 0.294-0.316 0.738-0.535 1.167-0.034 0.064-0.245 0.102-0.335 0.060-0.083-0.038-0.173-0.203-0.158-0.294 0.090-0.474 0.188-0.952 0.331-1.412 0.045-0.139 0.248-0.264 0.407-0.312 0.056-0.019 0.211 0.2 0.282 0.331 0.038 0.075 0.008 0.188 0.008 0.459zM15.499 11.561c0.576 0.516 0.508 1.22 0.572 1.867 0.011 0.12-0.139 0.29-0.256 0.376-0.064 0.049-0.32-0.026-0.324-0.068-0.072-0.472-0.15-1.148-0.209-1.83l-0.010-0.139c-0.004-0.056 0.132-0.128 0.226-0.207zM28.969 27.558c0.098 0.026 0.192 0.060 0.286 0.094 0.346 0.162 0.693 0.316 1.032 0.493 0.162 0.087 0.32 0.188 0.437 0.324 0.132 0.151-0.019 0.452-0.203 0.41-0.629-0.136-1.242-0.328-1.713-0.794-0.072-0.072-0.068-0.245-0.045-0.361 0.011-0.064 0.132-0.109 0.207-0.162zM21.323 11.75c0.038 0.105 0.151 0.264 0.109 0.369-0.277 0.69-0.514 1.209-0.767 1.718l0.063-0.141c-0.030 0.064-0.162 0.12-0.237 0.109-0.068-0.008-0.162-0.102-0.181-0.177-0.132-0.576 0.286-1.611 0.749-1.875 0.045-0.026 0.124 0 0.264 0zM39.288 20.54c-0.075-0.045-0.226-0.102-0.301-0.211-0.034-0.041 0.068-0.237 0.154-0.301 0.337-0.252 0.726-0.513 1.129-0.755l0.065-0.036c0.113-0.064 0.339-0.068 0.425 0.004 0.075 0.068 0.087 0.324 0.019 0.414-0.346 0.482-0.779 0.847-1.491 0.885zM36.902 24.67c-0.301-0.030-0.429-0.038-0.553-0.060-0.053-0.015-0.132-0.075-0.132-0.113-0.004-0.094 0.019-0.188 0.068-0.264 0.064-0.072 0.151-0.124 0.241-0.151 0.459-0.136 0.922-0.275 1.385-0.388 0.102-0.023 0.316 0.045 0.331 0.102 0.030 0.136-0.008 0.301-0.060 0.44-0.030 0.075-0.143 0.136-0.23 0.162-0.399 0.109-0.802 0.207-1.054 0.271zM23.063 21.353c-0.030 0.143-0.083 0.452-0.188 0.745-0.026 0.072-0.226 0.139-0.32 0.113-0.090-0.026-0.2-0.177-0.196-0.271 0.008-0.542 0.038-1.084 0.090-1.623 0.011-0.117 0.162-0.222 0.248-0.331 0.102 0.109 0.267 0.203 0.294 0.328 0.060 0.282 0.045 0.576 0.075 1.039zM44.6 4.424c0-1.148 0.275-2.018 0.828-2.609 0.517-0.553 1.251-0.898 2.065-0.898 0.034 0 0.068 0.001 0.101 0.002l-0.005-0c0.877 0 1.574 0.256 2.089 0.772 0.527 0.52 0.787 1.344 0.787 2.477s-0.279 1.992-0.836 2.571c-0.553 0.576-1.295 0.866-2.221 0.866-0.034 0.002-0.075 0.002-0.115 0.002-0.711 0-1.36-0.262-1.857-0.694l0.003 0.003c-0.28-0.267-0.495-0.6-0.62-0.973l-0.005-0.017c-0.139-0.424-0.219-0.911-0.219-1.417 0-0.031 0-0.062 0.001-0.093l-0 0.005zM47.56 1.013c-0.64 0-1.16 0.282-1.57 0.851-0.403 0.565-0.602 1.397-0.602 2.492s0.188 1.897 0.572 2.402c0.337 0.459 0.875 0.754 1.482 0.754 0.019 0 0.038-0 0.057-0.001l-0.003 0c0.64 0 1.167-0.282 1.57-0.851 0.41-0.572 0.614-1.4 0.614-2.485 0-1.088-0.196-1.886-0.587-2.398-0.335-0.465-0.876-0.765-1.486-0.765-0.016 0-0.032 0-0.049 0.001l0.002-0zM52.104 7.567h-0.791v-6.611h0.791v3.042h3.072v-3.042h0.787v6.611h-0.787v-3.475h-3.076v3.475zM59.998 7.567h-0.124l0.824-6.611h0.312l1.984 6.11 1.98-6.11h0.309l0.828 6.611h-0.791l-0.651-5.289-1.713 5.289h-0.595l-1.732-5.222-0.632 5.222zM71.349 0.956c0.12 0.117 0.181 0.271 0.181 0.463 0 0.154-0.038 0.316-0.105 0.482l-1.694 3.426v2.24h-0.783v-2.033l-1.897-4.574h0.806l1.807 4.262 1.645-3.317c0.072-0.158 0.105-0.324 0.105-0.489 0-0.173-0.049-0.305-0.143-0.399l0.075-0.056zM1.333 9.306c0.489-0.023 0.968-0.034 1.434-0.034 0.478 0 0.979 0.049 1.502 0.151 0.531 0.098 1.054 0.29 1.566 0.565 0.523 0.267 0.96 0.617 1.318 1.050 0.391 0.473 0.695 1.035 0.876 1.65l0.008 0.033c0.222 0.696 0.331 1.544 0.331 2.545s-0.166 1.897-0.501 2.699c-0.32 0.787-0.764 1.393-1.333 1.815-1.099 0.821-2.428 1.231-3.983 1.231-0.546 0-1.118-0.023-1.72-0.068h-0.832v-11.637h1.333zM1.385 20.811c0.289 0.021 0.627 0.033 0.967 0.033 0.252 0 0.502-0.007 0.751-0.020l-0.035 0.001c0.594-0.059 1.137-0.231 1.623-0.493l-0.023 0.011c0.68-0.394 1.225-0.954 1.589-1.627l0.011-0.022c0.478-0.911 0.715-2.097 0.715-3.561 0-1.043-0.124-1.943-0.38-2.699-0.191-0.651-0.495-1.217-0.892-1.703l0.007 0.009c-0.323-0.364-0.716-0.656-1.16-0.857l-0.022-0.009c-0.323-0.173-0.698-0.307-1.094-0.38l-0.024-0.004c-0.305-0.030-0.659-0.047-1.016-0.047s-0.712 0.017-1.061 0.050l0.045-0.003v11.32zM44.868 20.943h-0.215v-11.652h0.565l6.938 10.767v-10.767h0.215v11.652h-1.216l-6.287-9.656v9.656zM62.637 9.291h0.218v6.66c0 1.739-0.346 3.023-1.035 3.844-0.624 0.746-1.555 1.218-2.596 1.218-0.036 0-0.072-0.001-0.108-0.002l0.005 0c-0.7 0-1.295-0.060-1.784-0.184-0.533-0.151-0.995-0.397-1.392-0.721l0.007 0.006c-0.888-0.689-1.333-2.074-1.333-4.16v-6.664h1.385v6.645c0 2.022 0.301 3.369 0.915 4.047 0.26 0.294 0.584 0.526 0.95 0.675l0.017 0.006c0.346 0.12 0.753 0.184 1.235 0.184 0.033 0.001 0.072 0.002 0.112 0.002 0.983 0 1.86-0.454 2.432-1.163l0.005-0.006c0.648-0.791 0.968-2.033 0.968-3.746v-6.641zM68.54 20.943h-1.382v-11.486h-2.884v-0.166h7.168v0.166h-2.899v11.486z"></path>
</symbol>
<symbol id="icon-open-menu-btn" viewBox="0 0 60 32">
<path d="M2 0h56c1.105 0 2 0.895 2 2s-0.895 2-2 2h-56c-1.105 0-2-0.895-2-2s0.895-2 2-2z"></path>
<path d="M2 14h56c1.105 0 2 0.895 2 2s-0.895 2-2 2h-56c-1.105 0-2-0.895-2-2s0.895-2 2-2z"></path>
<path d="M2 28h56c1.105 0 2 0.895 2 2s-0.895 2-2 2h-56c-1.105 0-2-0.895-2-2s0.895-2 2-2z"></path>
</symbol>
<symbol id="icon-people" viewBox="0 0 34 32">
<path d="M11.556 0c-3.598 0-6.516 2.917-6.516 6.516s2.917 6.516 6.516 6.516v0c3.598 0 6.516-2.917 6.516-6.516s-2.917-6.516-6.516-6.516v0zM11.556 11.911c-2.995 0-5.422-2.428-5.422-5.422s2.428-5.422 5.422-5.422v0c2.995 0 5.422 2.428 5.422 5.422s-2.428 5.422-5.422 5.422v0zM24.853 2.702c-2.7 0-4.889 2.189-4.889 4.889s2.189 4.889 4.889 4.889v0c2.7 0 4.889-2.189 4.889-4.889s-2.189-4.889-4.889-4.889v0zM24.853 11.378c-0.078 0.006-0.168 0.009-0.26 0.009-2.101 0-3.804-1.703-3.804-3.804s1.703-3.804 3.804-3.804c0.091 0 0.182 0.003 0.272 0.010l-0.012-0.001c1.986 0.14 3.545 1.786 3.545 3.796s-1.558 3.655-3.532 3.795l-0.012 0.001z"></path>
<path d="M33.6 19.609c-0.514-3.108-2.609-5.628-5.416-6.735l-0.059-0.021s-1.387 1.031-3.271 0.996c-0.004 0-0.008 0-0.013 0-1.212 0-2.336-0.379-3.259-1.025l0.018 0.012s-1.511 0.569-2.738 1.742c-1.12-0.996-3.022-1.813-3.022-1.813s-1.778 1.333-4.302 1.298c-2.667 0-4.267-1.298-4.267-1.298s-5.796 1.973-7.004 8.711c0 0-1.316 3.556 1.707 8.889h19.111s1.351-2.364 1.6-3.804h9.493c2.329-3.556 1.404-6.933 1.404-6.933zM20.427 29.262h-17.76c-2.311-4.409-1.316-7.627-1.316-7.627 0.589-3.412 2.787-6.209 5.768-7.618l0.063-0.027c1.252 0.737 2.757 1.172 4.364 1.172s3.113-0.435 4.405-1.194l-0.041 0.022c3.045 1.436 5.242 4.232 5.822 7.583l0.009 0.061s0.96 3.964-1.316 7.644zM31.556 25.476h-8.622c0.338-1.92-0.107-4.018-0.107-4.018-0.41-2.421-1.535-4.529-3.147-6.152l0.001 0.001c0.551-0.498 1.173-0.924 1.849-1.244 2.044 1.173 4.64 1.173 6.684 0 2.258 1.090 3.884 3.18 4.313 5.678l0.007 0.046s0.8 2.702-0.96 5.689z"></path>
</symbol>
<symbol id="icon-empty-star" viewBox="0 0 34 32">
<path stroke-linejoin="miter" stroke-linecap="butt" stroke-miterlimit="4" stroke-width="1.6842" d="M16.034 1.819c0.105-0.353 0.427-0.606 0.808-0.606s0.703 0.253 0.807 0.6l0.002 0.006 2.543 7.882c0.337 1.027 1.314 1.735 2.408 1.735h8.286c0.458 0.009 0.825 0.383 0.825 0.842 0 0.275-0.131 0.519-0.335 0.672l-0.002 0.002-6.703 4.884c-0.629 0.465-1.032 1.204-1.032 2.037 0 0.277 0.045 0.544 0.127 0.794l-0.005-0.018 2.56 7.882c0.022 0.072 0.035 0.155 0.035 0.242 0 0.465-0.377 0.842-0.842 0.842-0.184 0-0.354-0.059-0.493-0.159l0.002 0.002-6.703-4.851c-0.41-0.3-0.925-0.48-1.482-0.48s-1.072 0.18-1.489 0.485l0.007-0.005-6.703 4.851c-0.136 0.098-0.306 0.157-0.49 0.157-0.465 0-0.842-0.377-0.842-0.842 0-0.086 0.013-0.169 0.037-0.247l-0.002 0.006 2.56-7.882c0.080-0.236 0.127-0.507 0.127-0.79 0-0.835-0.405-1.575-1.029-2.035l-0.007-0.005-6.703-4.851c-0.205-0.155-0.337-0.399-0.337-0.674 0-0.465 0.377-0.842 0.842-0.842h8.253c0.006 0 0.013 0 0.021 0 1.118 0 2.067-0.727 2.399-1.734l0.005-0.018 2.543-7.882z"></path>
</symbol>
<symbol id="icon-full-star" viewBox="0 0 34 32">
<path d="M15.242 1.566c0.228-0.678 0.858-1.158 1.6-1.158s1.372 0.48 1.597 1.146l0.003 0.012 2.56 7.865c0.221 0.687 0.853 1.176 1.6 1.179h8.287c0.916 0.019 1.651 0.765 1.651 1.684 0 0.549-0.263 1.037-0.67 1.345l-0.004 0.003-6.686 4.884c-0.429 0.309-0.704 0.807-0.704 1.37 0 0.185 0.030 0.362 0.085 0.528l-0.003-0.012 2.56 7.865c0.054 0.157 0.084 0.338 0.084 0.527 0 0.93-0.754 1.684-1.684 1.684-0.374 0-0.719-0.122-0.999-0.328l0.005 0.003-6.669-4.901c-0.275-0.203-0.62-0.324-0.994-0.324s-0.719 0.122-0.998 0.328l0.005-0.003-6.703 4.884c-0.275 0.203-0.62 0.325-0.994 0.325-0.93 0-1.684-0.754-1.684-1.684 0-0.188 0.031-0.369 0.088-0.539l-0.003 0.012 2.56-7.865c0.051-0.154 0.081-0.332 0.081-0.517 0-0.562-0.276-1.061-0.699-1.366l-0.005-0.003-6.686-4.867c-0.411-0.311-0.674-0.798-0.674-1.347 0-0.924 0.745-1.675 1.667-1.684h8.254c0.003 0 0.007 0 0.010 0 0.75 0 1.385-0.49 1.603-1.167l0.003-0.012 2.56-7.865z"></path>
</symbol>
</defs>
</svg>
